<svg id="Layer_1" data-name="Layer 1" xmlns="http://www.w3.org/2000/svg" viewBox="0 0 140 100"><defs><style>.cls-1{fill:none;}.cls-2{fill:#d2003f;}</style></defs><title>event-pwh</title><rect class="cls-1" width="140" height="100"/><path class="cls-2" d="M17.37,26.78c3.82,0,5.37,1.64,5.37,5.15s-1.55,5.15-5.37,5.15h-1a.59.59,0,0,0-.65.65v3.43a.56.56,0,0,1-.64.64H12.64a.58.58,0,0,1-.64-.64V27.45a.6.6,0,0,1,.64-.67Zm.13,6.61c1,0,1.54-.13,1.54-1.46s-.51-1.46-1.54-1.46H16.34a.59.59,0,0,0-.65.65v1.63a.59.59,0,0,0,.65.64Z"/><path class="cls-2" d="M27.12,26.78a.57.57,0,0,1,.64.65v10a.58.58,0,0,0,.64.64h4.79a.58.58,0,0,1,.65.65v2.4a.57.57,0,0,1-.65.64H24.71a.58.58,0,0,1-.64-.64V27.43a.58.58,0,0,1,.64-.65Z"/><path class="cls-2" d="M45.58,41.07c0,.47-.21.73-.64.73H42.53a.58.58,0,0,1-.64-.64V39.29a.57.57,0,0,0-.65-.64H39.4a.58.58,0,0,0-.65.64v1.87a.56.56,0,0,1-.64.64h-2.4c-.41,0-.65-.26-.65-.73V32c0-2.71.43-5.58,5.26-5.58s5.26,2.87,5.26,5.58ZM41.89,32c0-1-.15-1.55-1.57-1.55S38.75,31,38.75,32v2.33a.59.59,0,0,0,.65.65h1.84a.6.6,0,0,0,.65-.67Z"/><path class="cls-2" d="M50.54,26.78a.69.69,0,0,1,.73.5l1.59,4c.09.19.22.19.3,0l1.59-4a.7.7,0,0,1,.73-.5h3.07c.49,0,.71.3.49.76L55.2,36.12a.55.55,0,0,0,0,.25v4.79a.58.58,0,0,1-.65.64h-3a.59.59,0,0,1-.65-.64V36.37a.55.55,0,0,0,0-.25L47,27.54c-.22-.46,0-.76.49-.76Z"/><path class="cls-2" d="M80.59,27.49a.53.53,0,0,1,.58-.71h2.55a.64.64,0,0,1,.71.56l1.23,9c0,.21.21.21.26,0l1.43-8.95a.66.66,0,0,1,.71-.56h1.85a.66.66,0,0,1,.71.56l1.44,9c0,.21.21.21.25,0l1.23-8.95a.64.64,0,0,1,.71-.56H96.8a.53.53,0,0,1,.58.71L94.74,41.24a.64.64,0,0,1-.71.56H91a.65.65,0,0,1-.7-.56L89.11,36c0-.22-.21-.22-.25,0l-1.18,5.27a.67.67,0,0,1-.71.56h-3a.65.65,0,0,1-.71-.56Z"/><path class="cls-2" d="M101.76,26.78a.58.58,0,0,1,.65.65V41.16a.58.58,0,0,1-.65.64H99.4a.58.58,0,0,1-.64-.64V27.43a.58.58,0,0,1,.64-.65Z"/><path class="cls-2" d="M108,31.12a.58.58,0,0,0-.65-.65h-3a.59.59,0,0,1-.65-.64v-2.4a.59.59,0,0,1,.65-.65h11a.58.58,0,0,1,.65.65v2.4a.58.58,0,0,1-.65.64h-3a.59.59,0,0,0-.65.65v10a.57.57,0,0,1-.64.64h-2.41a.58.58,0,0,1-.64-.64Z"/><path class="cls-2" d="M120.31,26.78a.59.59,0,0,1,.65.65v5.36a.58.58,0,0,0,.64.64h2.06a.58.58,0,0,0,.65-.64V27.43a.59.59,0,0,1,.64-.65h2.41a.57.57,0,0,1,.64.65V41.16a.57.57,0,0,1-.64.64H125a.58.58,0,0,1-.64-.64V37.77a.58.58,0,0,0-.65-.65H121.6a.58.58,0,0,0-.64.65v3.39a.58.58,0,0,1-.65.64h-2.4a.59.59,0,0,1-.65-.64V27.43a.58.58,0,0,1,.65-.65Z"/><path class="cls-2" d="M74.68,29.93a3.31,3.31,0,0,0-4.68,0,3.31,3.31,0,0,0-4.68,4.67L70,39.28l4.68-4.68A3.3,3.3,0,0,0,74.68,29.93Z"/><path class="cls-2" d="M17.3,47.61a1,1,0,0,1,1.11,1.1v9.15a1,1,0,0,0,1.12,1.07l3.57-.1a1,1,0,0,0,1.12-1.11c0-3.61,0-5.42,0-9a1,1,0,0,1,1.11-1.09h4.18a1,1,0,0,1,1.11,1.07c0,9.14,0,13.7,0,22.84a1,1,0,0,1-1.12,1.12l-4.17.22a.94.94,0,0,1-1.11-1V66.11c0-.73-.37-1.07-1.12-1l-3.57.14a1,1,0,0,0-1.12,1.15v5.79a1.07,1.07,0,0,1-1.12,1.17l-4.17.28a.94.94,0,0,1-1.11-1V48.74a1,1,0,0,1,1.11-1.12Z"/><path class="cls-2" d="M53.62,47.57c.75,0,1.12.35,1.12,1v3.87c0,.66-.37,1-1.12,1l-9,.06c-.71,0-1.12.36-1.12,1.06v1.12a1,1,0,0,0,1.11,1l5.78-.06c.74,0,1.12.34,1.12,1,0,1.55,0,2.33,0,3.88a1,1,0,0,1-1.11,1.06c-2.31,0-3.47,0-5.78.1a1,1,0,0,0-1.12,1.07V65a1,1,0,0,0,1.12,1c3.61-.09,5.41-.12,9-.18.74,0,1.12.33,1.11,1v3.88c0,.69-.37,1-1.12,1-6.26.13-9.39.22-15.65.47a1,1,0,0,1-1.11-1c0-9,0-13.55,0-22.59,0-.7.41-1,1.12-1Z"/><path class="cls-2" d="M78.19,70.49a1,1,0,0,1-1.12,1.16l-4.18,0c-.71,0-1.12-.35-1.12-1v-3c0-.69-.37-1-1.11-1H67.45c-.71,0-1.12.35-1.12,1v3c0,.68-.37,1-1.12,1l-4.17,0a1,1,0,0,1-1.12-1.16V55.91c0-4.34.75-9,9.13-9s9.13,4.61,9.13,8.95C78.18,61.74,78.18,64.65,78.19,70.49ZM71.77,55.88c0-1.64-.26-2.47-2.72-2.47s-2.72.83-2.72,2.48v3.74a1,1,0,0,0,1.12,1h3.21c.74,0,1.11-.38,1.11-1.06Z"/><path class="cls-2" d="M103.87,70.42a1.21,1.21,0,0,1-1.23,1.85c-1.7-.06-2.55-.1-4.25-.15a1,1,0,0,1-.86-.52c-1.55-2.87-2.32-4.29-3.88-7.13a.42.42,0,0,0-.29-.18l-1.49,0a1.05,1.05,0,0,0-1.16,1v5.49a1.05,1.05,0,0,1-1.15,1l-4.18-.09a1.1,1.1,0,0,1-1.15-1.1c0-8.81,0-13.21,0-22a1.07,1.07,0,0,1,1.15-1.07h8.16c6.63,0,9.32,2.69,9.32,8.47,0,3.28-.85,5.56-2.82,6.85a.36.36,0,0,0-.12.45C101.5,66.16,102.29,67.57,103.87,70.42Zm-12-16.86a1.06,1.06,0,0,0-1.15,1.07V57.2a1.09,1.09,0,0,0,1.15,1.09l1.9,0c1.79,0,2.69-.17,2.68-2.34s-.89-2.39-2.68-2.4Z"/><path class="cls-2" d="M114,54.87c0-.72-.37-1.08-1.12-1.09l-5.21-.07a1,1,0,0,1-1.12-1.08v-4a1,1,0,0,1,1.11-1.07l19.08,0a1,1,0,0,1,1.12,1.12v4.17A1,1,0,0,1,126.77,54l-5.22-.09A1,1,0,0,0,120.44,55v17.1a.92.92,0,0,1-1.11,1l-4.17-.24A1.07,1.07,0,0,1,114,71.73C114,65,114,61.62,114,54.87Z"/></svg>