<svg id="Layer_1" data-name="Layer 1" xmlns="http://www.w3.org/2000/svg" xmlns:xlink="http://www.w3.org/1999/xlink" viewBox="0 0 140 100"><defs><style>.cls-1{fill:none;}.cls-13,.cls-2{fill:#0e1336;}.cls-3{fill:#0069ff;}.cls-4{fill:#aeaeae;}.cls-15,.cls-5{fill:#fff;}.cls-6{opacity:0.3;}.cls-7{fill:#1c48b9;}.cls-8{fill:url(#linear-gradient);}.cls-9{fill:url(#linear-gradient-2);}.cls-10{fill:url(#linear-gradient-3);}.cls-11{fill:url(#linear-gradient-4);}.cls-12{fill:url(#linear-gradient-5);}.cls-13,.cls-15{font-size:8.29px;font-family:Montserrat-Black, Montserrat Black;font-weight:800;letter-spacing:0.29em;}.cls-14{letter-spacing:0.3em;}</style><linearGradient id="linear-gradient" x1="70" y1="57.19" x2="70" y2="60.1" gradientUnits="userSpaceOnUse"><stop offset="0" stop-color="#fff" stop-opacity="0.2"/><stop offset="1" stop-color="#fff" stop-opacity="0"/></linearGradient><linearGradient id="linear-gradient-2" x1="108.71" y1="57.19" x2="108.71" y2="60.02" xlink:href="#linear-gradient"/><linearGradient id="linear-gradient-3" x1="114.49" y1="57.19" x2="114.49" y2="60.02" xlink:href="#linear-gradient"/><linearGradient id="linear-gradient-4" x1="-2781.82" y1="57.19" x2="-2781.82" y2="60.02" gradientTransform="matrix(-1, 0, 0, 1, -2750.53, 0)" xlink:href="#linear-gradient"/><linearGradient id="linear-gradient-5" x1="-2776.04" y1="57.19" x2="-2776.04" y2="60.02" gradientTransform="matrix(-1, 0, 0, 1, -2750.53, 0)" xlink:href="#linear-gradient"/></defs><title>event-ubc-cup</title><rect class="cls-1" width="140" height="100"/><path class="cls-2" d="M96.83,40.77c.38-1.1.87-1.1,1.3-1.1h19.74a2.39,2.39,0,0,0,2.41-2.42V31.41a2.39,2.39,0,0,0-2-2.36L118.1,29H94.31a10.4,10.4,0,0,0-5,1.38l-.09.05-.08.06a10.66,10.66,0,0,0-2.66,2.43A9.64,9.64,0,0,0,78.65,29H45.59a2.4,2.4,0,0,0-2.37,2l0,.22V46H32.78a1.65,1.65,0,0,1-.38-.06c-.87-.33-.94-.9-.94-1.61V31.41a2.4,2.4,0,0,0-2-2.36L29.27,29H22.13a2.41,2.41,0,0,0-2.37,2l0,.22V48.32a7.68,7.68,0,0,0,1.87,5l.05.06.06.06a12.23,12.23,0,0,0,1.53,1.38H19.72l3.82,9.89h5l1,2.47h6.58L37.61,71h64.78l1.5-3.87h6.58l1-2.47h5l3.82-9.89h0V48.39A2.38,2.38,0,0,0,117.87,46H98.13a1.07,1.07,0,0,1-.3,0h0c-.93-.38-1-.8-1-1.3V40.34S96.81,41,96.83,40.77Z"/><polygon class="cls-3" points="105.36 57.04 34.64 57.04 39.16 68.74 100.84 68.74 105.36 57.04"/><polygon class="cls-3" points="28.05 57.03 32.84 57.03 35.87 64.87 31.08 64.87 28.05 57.03"/><polygon class="cls-3" points="23.02 57.03 26.3 57.03 28.37 62.4 25.09 62.4 23.02 57.03"/><polygon class="cls-3" points="111.95 57.03 107.17 57.03 104.13 64.87 108.92 64.87 111.95 57.03"/><path class="cls-4" d="M22.13,32.44H29c.07,0,.11.05.11.1V45.46a3.65,3.65,0,0,0,2.55,3.82,4,4,0,0,0,1.08.16h12.7V32.54c0-.06.05-.1.11-.1h6.93c.07,0,.11.05.11.1V54.61c0,.07,0,.1-.11.1H28.79a7.25,7.25,0,0,1-5.41-2.53A5.38,5.38,0,0,1,22,48.69V32.54A.11.11,0,0,1,22.13,32.44Z"/><path class="cls-4" d="M55.23,32.44H78.65A7.39,7.39,0,0,1,85,35.89a5.73,5.73,0,0,1,.7,2.59v.33a5.89,5.89,0,0,1-2.59,4.7q2.59,2.18,2.59,4.33v1a6,6,0,0,1-6.29,5.87H55.23c-.07,0-.1,0-.1-.1V32.54C55.14,32.48,55.17,32.44,55.23,32.44Zm7,5.29v3.43H76.69A1.8,1.8,0,0,0,78.5,40a4.34,4.34,0,0,0,.08-.6c0-.82-.5-1.38-1.49-1.69Zm0,8.27v3.44H76.69a1.81,1.81,0,0,0,1.81-1.16,4.68,4.68,0,0,0,.08-.58,1.67,1.67,0,0,0-1.08-1.56,2,2,0,0,0-.81-.14Z"/><path class="cls-4" d="M94.31,32.44h23.56c.07,0,.1.05.1.1v5.09c0,.07,0,.1-.1.1H98.13q-2.68,0-3.57,2.93c0,.35-.07.62-.07.81v4.32a3.5,3.5,0,0,0,2.45,3.44,3.09,3.09,0,0,0,1.19.21h19.74c.07,0,.1,0,.1.08v5.09c0,.07,0,.1-.1.1H94.45a7.5,7.5,0,0,1-6-2.94,5.35,5.35,0,0,1-1-3.08V38.32c0-1.82,1-3.41,3.1-4.78A8.05,8.05,0,0,1,94.31,32.44Z"/><polygon class="cls-3" points="116.98 57.03 113.7 57.03 111.63 62.4 114.91 62.4 116.98 57.03"/><path class="cls-5" d="M22.13,31.31H29c.07,0,.11.05.11.1V44.33a3.67,3.67,0,0,0,3.63,4h12.7V31.41c0-.07.05-.1.11-.1h6.93c.07,0,.11.05.11.1V53.48c0,.07,0,.1-.11.1H28.79a7.25,7.25,0,0,1-5.41-2.53A5.38,5.38,0,0,1,22,47.56V31.41C22,31.34,22.08,31.31,22.13,31.31Z"/><path class="cls-5" d="M55.23,31.31H78.65A7.39,7.39,0,0,1,85,34.76a5.73,5.73,0,0,1,.7,2.59v.33a5.87,5.87,0,0,1-2.59,4.69c1.73,1.46,2.59,2.9,2.59,4.34v1a6,6,0,0,1-6.29,5.87H55.23c-.07,0-.1,0-.1-.1V31.41C55.14,31.34,55.17,31.31,55.23,31.31Zm7,5.29V40H76.69a1.8,1.8,0,0,0,1.81-1.14,4.6,4.6,0,0,0,.08-.61c0-.81-.5-1.37-1.49-1.68Zm0,8.27v3.44H76.69a1.81,1.81,0,0,0,1.81-1.16,4.68,4.68,0,0,0,.08-.58A1.67,1.67,0,0,0,77.5,45a2,2,0,0,0-.81-.14Z"/><path class="cls-5" d="M94.31,31.31h23.56c.07,0,.1.05.1.1V36.5c0,.07,0,.1-.1.1H98.13q-2.68,0-3.57,2.93c0,.35-.07.62-.07.81v4.32a3.5,3.5,0,0,0,2.45,3.44,3.09,3.09,0,0,0,1.19.21h19.74c.07,0,.1,0,.1.08v5.09c0,.07,0,.1-.1.1H94.45a7.5,7.5,0,0,1-6-2.94,5.35,5.35,0,0,1-1-3.08V37.18c0-1.81,1-3.4,3.1-4.77A8.05,8.05,0,0,1,94.31,31.31Z"/><g class="cls-6"><polygon class="cls-7" points="68.79 68.74 45.27 68.74 53.57 57.04 77.08 57.04 68.79 68.74"/><polygon class="cls-7" points="79.98 68.74 72.3 68.74 80.6 57.04 88.28 57.04 79.98 68.74"/><polygon class="cls-7" points="86.43 68.74 83.28 68.74 91.57 57.04 94.73 57.04 86.43 68.74"/></g><polygon class="cls-8" points="105.36 57.04 34.64 57.04 36.33 61.42 103.62 61.55 105.36 57.04"/><polygon class="cls-9" points="111.96 57.04 107.17 57.04 105.47 61.42 110.26 61.42 111.96 57.04"/><polygon class="cls-10" points="116.98 57.04 113.69 57.04 112 61.42 115.29 61.42 116.98 57.04"/><polygon class="cls-11" points="28.04 57.04 32.84 57.04 34.53 61.42 29.74 61.42 28.04 57.04"/><polygon class="cls-12" points="23.02 57.04 26.31 57.04 28 61.42 24.71 61.42 23.02 57.04"/><text class="cls-13" transform="translate(40.84 66.29)">C<tspan class="cls-14" x="8.58" y="0">UP 2</tspan><tspan x="38.73" y="0">0</tspan><tspan class="cls-14" x="46.87" y="0">19</tspan></text><text class="cls-15" transform="translate(40.84 65.46)">C<tspan class="cls-14" x="8.58" y="0">UP 2</tspan><tspan x="38.73" y="0">0</tspan><tspan class="cls-14" x="46.87" y="0">19</tspan></text></svg>