<svg id="Layer_1" data-name="Layer 1" xmlns="http://www.w3.org/2000/svg" xmlns:xlink="http://www.w3.org/1999/xlink" viewBox="0 0 140 100"><defs><style>.cls-1{fill:none;}.cls-2{fill:url(#linear-gradient);}.cls-3{fill:url(#linear-gradient-2);}.cls-4{fill:#003372;}.cls-5{fill:url(#linear-gradient-3);}.cls-6{fill:#fff;}.cls-7{fill:#eaa001;}</style><linearGradient id="linear-gradient" x1="69.49" y1="25.44" x2="70.13" y2="41.98" gradientUnits="userSpaceOnUse"><stop offset="0" stop-color="#003372"/><stop offset="1"/></linearGradient><linearGradient id="linear-gradient-2" x1="67.33" y1="21.56" x2="67.33" y2="34.98" xlink:href="#linear-gradient"/><linearGradient id="linear-gradient-3" x1="70.12" y1="59.43" x2="70.12" y2="47.19" xlink:href="#linear-gradient"/></defs><title>event-bobc4</title><rect class="cls-1" width="140" height="100"/><polyline class="cls-2" points="98.33 50.24 98.33 43.83 98.33 42.82 98.33 27.3 98.33 27.07 98.33 27.06 85.16 17.18 81.67 19.79 75.05 15.15 71.88 17.36 65.39 13 52.98 21.42 50.73 19.56 41.68 27.06 41.68 27.07 41.68 27.3 41.68 42.82 41.68 43.83 41.68 50.24"/><polygon class="cls-3" points="81.67 19.79 75.05 15.15 71.88 17.36 65.39 13 52.98 21.42 65.57 31.86 81.67 19.79"/><path class="cls-4" d="M41.78,52.62a39.77,39.77,0,0,0,.37,4.5c.26,1.7,2.12,13.36,11.19,21.26A39.74,39.74,0,0,0,70,87a39.79,39.79,0,0,0,16.67-8.62c9.07-7.9,10.92-19.56,11.18-21.26A37,37,0,0,0,98.21,53"/><path class="cls-5" d="M97.88,41.67H42.36v8.57h0c0,.45,0,.89,0,1.33a48.72,48.72,0,0,0,.45,5.54l0,0c.13,1,.23,1.59.23,1.59s0,.07,0,.1h0c.24,1.3.53,2.56.88,3.78,2.23,5.72,4.61,10.25,8.68,14.31,4.53,4.35,9.86,7.42,17.35,9.63,7.51-2.22,13.31-5.53,17.84-9.9,4-4,6.18-8.34,8.41-14,.35-1.23.64-2.49.88-3.79h0s0-.06,0-.1.1-.6.23-1.59l0,0a48.72,48.72,0,0,0,.45-5.54c0-.44,0-.88,0-1.33h0Z"/><path class="cls-6" d="M40,54.72h0Z"/><path class="cls-6" d="M47,57.3h4.23v1H47Z"/><path class="cls-6" d="M57.72,55a4.6,4.6,0,0,1,1.25.17,2.93,2.93,0,0,1,1,.51,2.4,2.4,0,0,1,.69.85,2.73,2.73,0,0,1,.25,1.21,2.65,2.65,0,0,1-.25,1.2,2.43,2.43,0,0,1-.69.86,2.89,2.89,0,0,1-1,.49,5,5,0,0,1-1.25.15,5,5,0,0,1-1.25-.15,2.81,2.81,0,0,1-1-.49,2.43,2.43,0,0,1-.69-.86,2.65,2.65,0,0,1-.25-1.2,2.73,2.73,0,0,1,.25-1.21,2.4,2.4,0,0,1,.69-.85,2.84,2.84,0,0,1,1-.51A4.55,4.55,0,0,1,57.72,55Zm0,.9a2.46,2.46,0,0,0-.76.12,2.38,2.38,0,0,0-.66.37,1.7,1.7,0,0,0-.46.57,1.66,1.66,0,0,0-.18.78,1.59,1.59,0,0,0,.18.77,1.74,1.74,0,0,0,.46.58,2.12,2.12,0,0,0,.66.36,2.29,2.29,0,0,0,1.52,0,2.12,2.12,0,0,0,.66-.36,1.74,1.74,0,0,0,.46-.58,1.59,1.59,0,0,0,.18-.77A1.66,1.66,0,0,0,59.6,57a1.7,1.7,0,0,0-.46-.57,2.38,2.38,0,0,0-.66-.37A2.46,2.46,0,0,0,57.72,55.94Z"/><path class="cls-6" d="M67.41,56.18s0-.08-.09-.12A.62.62,0,0,0,67,56H63.75v1.28h2.13a.49.49,0,0,0,.26,0,.23.23,0,0,0,.06-.14h.22v1.27H66.2a.26.26,0,0,0-.06-.14.46.46,0,0,0-.26-.05H63.75V60a.14.14,0,0,0,.09.14.38.38,0,0,0,.19,0v.22H62.36v-.22c.15,0,.23-.06.23-.18V55.51c0-.12-.09-.18-.26-.18v-.22H67a.5.5,0,0,0,.29-.06.18.18,0,0,0,.09-.16h.22v1.29Z"/><path class="cls-6" d="M73,55.51a.15.15,0,0,0-.09-.14.41.41,0,0,0-.19,0v-.22h3.77a2.64,2.64,0,0,1,.79.11,1.58,1.58,0,0,1,.56.3,1.13,1.13,0,0,1,.33.43,1.26,1.26,0,0,1,.11.51,1.05,1.05,0,0,1-.07.4,1.25,1.25,0,0,1-.19.34,2.16,2.16,0,0,1-.25.27,1.26,1.26,0,0,1-.29.2h0a1.93,1.93,0,0,1,.34.19,1.64,1.64,0,0,1,.3.29,1.87,1.87,0,0,1,.22.39,1.27,1.27,0,0,1,.09.47,1.42,1.42,0,0,1-.11.55A1.25,1.25,0,0,1,78,60a1.8,1.8,0,0,1-.62.31,3.43,3.43,0,0,1-.91.11H72.7v-.22a.41.41,0,0,0,.19,0A.14.14,0,0,0,73,60Zm3.32,1.71a1.25,1.25,0,0,0,.54-.12.5.5,0,0,0,.26-.5.57.57,0,0,0-.08-.31.52.52,0,0,0-.18-.18.61.61,0,0,0-.25-.08,1.46,1.46,0,0,0-.29,0H74.14v1.21Zm0,2.33a1.2,1.2,0,0,0,.77-.19.65.65,0,0,0,.2-.5A.63.63,0,0,0,77,58.3a1.69,1.69,0,0,0-.9-.18H74.14v1.43Z"/><path class="cls-6" d="M84.45,56.64a.09.09,0,0,0,0,0v-.06s0-.1-.12-.16a1.24,1.24,0,0,0-.35-.2,2.76,2.76,0,0,0-.53-.17,3.37,3.37,0,0,0-.66-.06,2.54,2.54,0,0,0-.8.11,1.81,1.81,0,0,0-.62.35A1.49,1.49,0,0,0,81,57a1.86,1.86,0,0,0-.15.77,1.79,1.79,0,0,0,.17.78,2,2,0,0,0,.43.6,1.77,1.77,0,0,0,.6.37,1.87,1.87,0,0,0,.69.13,2.63,2.63,0,0,0,.67-.09,3.75,3.75,0,0,0,.62-.2,2.33,2.33,0,0,0,.45-.24c.12-.09.18-.17.18-.25v-.09a.51.51,0,0,0,0-.13l.14-.12.89,1.29-.12.06a.58.58,0,0,0-.2-.06.74.74,0,0,0-.32.11l-.55.24a3.68,3.68,0,0,1-.77.24,4.37,4.37,0,0,1-1,.1,3.75,3.75,0,0,1-1.1-.16,2.56,2.56,0,0,1-1-.5,2.59,2.59,0,0,1-1-2,2.49,2.49,0,0,1,.27-1.19,2.55,2.55,0,0,1,.7-.86,2.87,2.87,0,0,1,1-.51A4.07,4.07,0,0,1,82.77,55a4.44,4.44,0,0,1,.84.08,6.08,6.08,0,0,1,.67.2l.48.19a.84.84,0,0,0,.28.09.21.21,0,0,0,.11,0l.09-.06.14.08-.8,1.16Z"/><path class="cls-6" d="M88.77,57.3H93v1H88.77Z"/><path class="cls-7" d="M79.69,67.14l.21.21v.9h-.36V67.5h-.38v1l.74,1v1.36l-.21.21H79l-.22-.21V70h.37v.75h.38V69.61l-.75-1V67.35l.22-.21Z"/><path class="cls-7" d="M82,67.14l.2.21v.9h-.35V67.5H81.5v1l.74,1v1.36l-.2.21h-.69l-.22-.21V70h.37v.75h.39V69.61l-.76-1V67.35l.22-.21Z"/><path class="cls-7" d="M84.6,67.36v1.58l-.19.18.19.18v1.58l-.22.21h-.9V67.15h.9Zm-.77.15V69h.4V67.51Zm0,1.81v1.41h.4V69.32Z"/><path class="cls-7" d="M86.94,70.88l-.21.21H86l-.21-.21V67.15h.36v3.58h.38V67.15h.37Z"/><polygon class="cls-7" points="87.16 73.58 78.63 73.99 78.63 73.17 87.16 73.58"/><path class="cls-7" d="M53.93,67.14l.21.21v.9h-.36V67.5h-.39v1l.75,1v1.36l-.21.21h-.69L53,70.88V70h.36v.75h.39V69.61l-.75-1V67.35l.21-.21Z"/><path class="cls-7" d="M56.27,67.14l.21.21v.9h-.36V67.5h-.39v1l.75,1v1.36l-.21.21h-.69l-.21-.21V70h.36v.75h.39V69.61l-.75-1V67.35l.21-.21Z"/><path class="cls-7" d="M58.83,67.36v1.58l-.18.18.18.18v1.58l-.21.21h-.91V67.15h.91Zm-.76.15V69h.4V67.51Zm0,1.81v1.41h.4V69.32Z"/><path class="cls-7" d="M61.28,67.15h.32v3.94h-.36V69.2L61,70.51h-.36l-.23-1.28v1.86h-.35V67.15h.35L60.75,69l.08.45.08-.48.33-1.85Z"/><polygon class="cls-7" points="53.24 73.58 61.77 73.99 61.77 73.17 53.24 73.58"/><path class="cls-6" d="M66.89,18.09c-.18.53.14.81.56,1.07.59.36,1.16.77,1.75,1.14.29.18.42.39.25.71a1.07,1.07,0,0,0,.39,1.54,6.8,6.8,0,0,1,.71.71c.1.1.21.22.11.38s-.25.1-.39.05a5.7,5.7,0,0,1-.91-.4A3.61,3.61,0,0,0,65.93,23c-.25.08-.58.3-.81,0s.06-.54.13-.81.23-.68.33-1a.76.76,0,0,0-.14-.81c-.21-.19-.45,0-.66.13l-5,2.05c-.19.08-.43.27-.58,0s.12-.38.27-.52l1-.91a.64.64,0,0,0,.15-.84c-.17-.28-.43,0-.63.07-1,.44-2,.91-2.94,1.35-.18.08-.42.28-.56,0s.15-.33.3-.44l7.78-5.65c.22-.17.41-.24.62,0,.51.54,1,1.07,1.54,1.62C67,17.53,66.87,17.81,66.89,18.09Z"/><path class="cls-6" d="M57.55,29.1c.1,0,.24.15.32,0s-.06-.21-.15-.29l-.55-.51a.35.35,0,0,1-.09-.46c.1-.15.25,0,.35,0,.55.25,1.08.51,1.62.77.1,0,.23.15.31,0s-.08-.18-.16-.24l-4.26-3.18c-.12-.09-.23-.14-.35,0C54.31,25.53,55.32,27.79,57.55,29.1Z"/><path class="cls-6" d="M78.54,19.88c-.91.56,0,.8.2,1.16.07.11.12.22,0,.33a.23.23,0,0,1-.32,0l-.85-.55c-1.55-1-1.57-1.05-3.1-2.08-.21-.14-.7-.27-.43-.58s.72-1,1.22-.66c1.55.95,1.51,1,3,2.07C78.39,19.65,78.59,19.77,78.54,19.88Z"/><path class="cls-6" d="M50.18,25.13a1.26,1.26,0,0,0-.53,1.19c.18.28.38.56.57.84.06.08.13.18,0,.28s-.19,0-.28,0l-3.36-1.75c-.21-.11-.21-.24,0-.39l4-3.31c.18-.15.3-.08.42.08l1.74,2.46c.18.25,0,.41-.14.59-.53.79-.53.57.17,1.19a7,7,0,0,0,.94.78.86.86,0,0,1,.37,1.13c-.13.44-.28.39-.54.13s-.67-.59-1-.92a4.82,4.82,0,0,0-1.66-1.17c-.38-.17-.62-.39-.57-.85C50.35,25.3,50.38,25.12,50.18,25.13Z"/><path class="cls-6" d="M92.63,24.5c-.14-.11-.31-.24-.48-.35l-1.56-1c-.7-.44-.71-.45-1.22.19-.16.2-.27.32.26,1,.34.59.59.8.79.57a1,1,0,0,1,1.32-.2,4.36,4.36,0,0,0,.6.23c.14.05.31.16.42,0S92.71,24.68,92.63,24.5Z"/><path class="cls-6" d="M70,18.5l6.48,4.25c.94.58-1.27,1.74-2.88.44s-.24-1.4-1.82-2.35A10.64,10.64,0,0,1,69.29,19C68.82,18.55,69.29,18.05,70,18.5Z"/><path class="cls-6" d="M89,22.12l-3.7-2.52a.48.48,0,0,0-.59.1c-.39.3-.63.48-.87.68L79,24.07c-.59.45-.3,1,.22.73a9.89,9.89,0,0,0,2.28-1.54c1.24-1,1,.07,2.4-.78.48.53,1,1,1.4.83s.51-.39.42-.78c0-.09-.06-.25.11-.26s2.2.79,3.12.2C89.14,22.35,89.13,22.23,89,22.12Z"/><path class="cls-4" d="M70,87a39.79,39.79,0,0,0,16.67-8.62c9.07-7.9,10.92-19.56,11.18-21.26.42-2.66.48-6.88.48-14.3h-1.6c0,7.72-.07,11.59-.45,14.06-.47,3-2.63,13.3-10.66,20.29A38.78,38.78,0,0,1,70,85.36h0a38.78,38.78,0,0,1-15.62-8.19c-8-7-10.18-17.3-10.65-20.29-.39-2.47-.46-6.34-.46-14.06H41.68c0,7.42,0,11.64.47,14.3.26,1.7,2.12,13.36,11.19,21.26A39.74,39.74,0,0,0,70,87"/><path class="cls-4" d="M34.3,37.6c-.83,1.55.05,3.37,2.31,4.77a2,2,0,0,0,1,.28,3.08,3.08,0,0,0,2-.93c-.43.89-.85,1.77-1.28,2.65l-.16.34c-.26.53-.4.55-.51.58a2.58,2.58,0,0,0-1.85,2.16,4.9,4.9,0,0,0,1.77,4.48,3,3,0,0,0,2,.77,2.84,2.84,0,0,0,1.66-.54,17.08,17.08,0,0,0,4.66.68h0A13.44,13.44,0,0,0,54.35,50a4.15,4.15,0,0,0,3.16,2.65,6.42,6.42,0,0,0,1.23.13,7.89,7.89,0,0,0,3.86-1.16,3.19,3.19,0,0,0,2.43.9h.29a8.4,8.4,0,0,0,3.64-1A4.06,4.06,0,0,0,72,52.75h0a8.05,8.05,0,0,0,4.3-1.43l.08.1a4.07,4.07,0,0,0,3.18,1.33h0A8.4,8.4,0,0,0,84.42,51a5.67,5.67,0,0,0,4.12,1.79,7.37,7.37,0,0,0,4.34-1.6,5.91,5.91,0,0,0,4.31,1.73,8.43,8.43,0,0,0,.86-.05,9.59,9.59,0,0,0,7.14-3.9s1.28-1.78.63-3.11a1.67,1.67,0,0,0-1.52-1,6.27,6.27,0,0,0,1.1-4.48c-.25-2.22-2.2-3.71-4.85-3.71a8.24,8.24,0,0,0-.85,0,8.67,8.67,0,0,0-2.79.84,10,10,0,0,0,1.41-4.72,3.56,3.56,0,0,0-3.64-3.49h-.24c-2,.12-4,1.38-6,3.82l-.21,0a2.22,2.22,0,0,0-.32-1.25,2.71,2.71,0,0,0-2.06-1.11H85.8a3.31,3.31,0,0,0-.44,0,3.79,3.79,0,0,0-3.63,2.57l-.22.51h-.93a2.46,2.46,0,0,0-.21-2,2.71,2.71,0,0,0-2.06-1.11h-.07a3.31,3.31,0,0,0-.44,0,3.77,3.77,0,0,0-3.61,2.52,6.53,6.53,0,0,0-2-.44,2.57,2.57,0,0,0-2.55,1.93l0,.07,0,.08A2.89,2.89,0,0,0,70,37.46a2.25,2.25,0,0,0-.64-.09h-.58a4.16,4.16,0,0,0-1.77.48A4.47,4.47,0,0,0,64.36,37a7.09,7.09,0,0,0-1.7.22,12.06,12.06,0,0,0-6.69,5A7,7,0,0,0,54.74,41l-.07,0c.37-.22.72-.46,1.06-.7a8.21,8.21,0,0,0,3.38-3.95,3.29,3.29,0,0,0-.56-3.06c-1.29-1.64-2.75-2.66-6-2.66h-.36a2,2,0,0,0-.14-.39,3.29,3.29,0,0,0-2.12-1.64,5.82,5.82,0,0,0-1-.21l-.1,0-.13,0h-.23c-2.57,0-3.83.86-4.66,3.18-.09.24-.17.49-.26.73a27,27,0,0,0-8.83,5A1.64,1.64,0,0,0,34.3,37.6Z"/><path class="cls-7" d="M72.58,72c-.39-.54-1-.82-2.34-.79a14.83,14.83,0,0,0-2.12.22,23.35,23.35,0,0,0-2.47.51l-1-.73a.62.62,0,0,0-.09.73,10.21,10.21,0,0,0,.8,1.3c.2.25.43.25.78.18.88-.21,2-.41,3.12-.56.86-.11,1.46-.15,2.1-.19a5.7,5.7,0,0,1,1.32.08c.16,0,.18-.11.18-.19A1,1,0,0,0,72.58,72Z"/><path class="cls-7" d="M65.33,73.19a10.21,10.21,0,0,1-.8-1.3.62.62,0,0,1,.09-.73,51,51,0,0,1,9.23-7.65c.27-.18.66-.3.89.07l.64,1.07c.27.5.27.62-.19,1.32-.8,1.24-2,3.29-3.22,5.46l-.64,1.19a50.46,50.46,0,0,0-2.42,5c-.09.22-.27.25-.38.09a2.41,2.41,0,0,1-.14-2.49c.23-.62.59-1.46,1-2.42l.8-1.62a55.75,55.75,0,0,1,3.31-5.67,53,53,0,0,0-7.9,6.4A2.92,2.92,0,0,0,65.33,73.19Z"/><path class="cls-7" d="M48.47,29.87a6.7,6.7,0,0,1,1,.17c1.22.39,1.5.95,1,2.11A122.91,122.91,0,0,1,42,48.79a11.51,11.51,0,0,1-1.53,1.89,1.27,1.27,0,0,1-1.84,0,3.33,3.33,0,0,1-1.24-3.06c0-.31.33-.77.57-.82a2.3,2.3,0,0,0,1.64-1.45C40.79,43,42,40.52,43,38c.84-2,1.48-4,2.2-6C45.83,30.32,46.49,29.86,48.47,29.87Z"/><path class="cls-7" d="M53.71,42.2a5.82,5.82,0,0,0-3.27-1L47.26,41c-1.46,0-3.19.38-3.34,1.18a1,1,0,0,0,1.17,1.23l.46-.08a22.6,22.6,0,0,1,3.26-.53c.91,0,1.23.73,1,1.64-1.28,5.17-7.46,5.56-8.45,5l-.86.74s7.2,3.19,13.14-1.74C55.64,46.83,56.24,44.31,53.71,42.2Z"/><path class="cls-7" d="M57.3,34.2c-1.48-1.88-2.9-2.57-9.35-1.64-.71.1-7.73,1.72-12.24,5.8-.53,1,.94,2.15,1.74,2.65,1,.6,4.74-5.26,8-6.1,0,0,3.66-.67,4-.75a3.46,3.46,0,0,1,2.91.52c1.81,2.14-4.31,5.64-6.28,6.26a2,2,0,0,0-1,.47c-.32.38-.22,1,0,1a20.54,20.54,0,0,0,5.35-1.24C54,40,59.09,36.48,57.3,34.2Z"/><path class="cls-7" d="M77.5,48c-1.74,2.61-5.86,4.16-7.43,2.36s.46-5,1.24-6.84l2.54-5.61c.3-.64,1.46-3.19,1.79-4a2.19,2.19,0,0,1,2.47-1.59c.88.11,1.18.34.84,1.34s-2.07,5-2.07,5c-.82,1.87-2.66,6-2.66,6-.58,1.28-1.3,2.92.09,3.37,1.58.52,3.28-1.45,3.28-1.45C78.13,46.16,78.2,47,77.5,48Z"/><path class="cls-7" d="M85.06,48c-1.74,2.61-5.86,4.16-7.43,2.36s.46-5,1.24-6.84l2.54-5.61c.3-.64,1.46-3.19,1.79-4a2.19,2.19,0,0,1,2.47-1.59c.88.11,1.18.34.84,1.34s-2.08,5-2.08,5l-2.65,6c-.58,1.28-1.3,2.92.09,3.37,1.58.52,3.28-1.45,3.28-1.45C85.69,46.16,85.76,47,85.06,48Z"/><path class="cls-7" d="M71.11,35.27c.36-1.11,1.21-1,3-.33s9.48.83,13.37-.14c1.22-.37.84.56.49.9s-1.56,1.87-8.51,1.87S70.69,37.18,71.11,35.27Z"/><path class="cls-7" d="M94.8,34.64c-1.13,2.77-5.71,8.41-7.38,10.06s-.5,1.93.1,1.45C93.9,41,96.87,34.92,96.76,32.93a2,2,0,0,0-2.22-2c-3,.18-5.63,4-7.39,7.18s-4,9.25-1.59,11.7,6,1.36,8.7-2.45c.47-.72.09-1.28-1.44-.11s-3.47,1.07-4.38-.12C86.8,45,92.21,33.42,94.66,33.29,95.23,33.25,95.21,33.62,94.8,34.64Z"/><path class="cls-7" d="M96.39,45a1.57,1.57,0,0,0-1.48,1.59c-.07,1,.61,1.24,1.75.88,3.21-1,7.63-2.6,7.15-6.94-.17-1.5-1.68-2.5-3.93-2.25-3.23.35-7.92,3.82-7.09,9.37a4.39,4.39,0,0,0,5.08,3.55A8.09,8.09,0,0,0,103.93,48c.31-.41.88-2,0-1.32a7.15,7.15,0,0,1-1,.64c-2,1.13-6.25,2.78-6.68-1.11-.25-2.25,2.14-5,4.12-5.22.61-.07,1.07.49.34,1.56A6.79,6.79,0,0,1,96.39,45Z"/><path class="cls-7" d="M63.87,41.66c.8-.08,1.39.49,1.14,1.24a11.1,11.1,0,0,1-1.11,2.42c-.37.64,1.77-.08,2.32-.84A4.2,4.2,0,0,0,67,40.09c-1-1.55-2.41-1.67-3.93-1.3"/><path class="cls-7" d="M69.9,47.12h0l-.07,0h0l-.07.06,0,0,0,.05-.1.14a2.13,2.13,0,0,1-1.06.63c-1,.28-1.74-.25-1.41-1.24a42.15,42.15,0,0,1,2-4.66c.3-.62.65-1.21,1-1.85A.9.9,0,0,0,69.36,39h-.47A2.21,2.21,0,0,0,67,40.09c-1.1,2-4.22,6.63-3.79,9.24.38,1.26.83,1.62,2.1,1.56a6.63,6.63,0,0,0,4.3-1.79,3,3,0,0,0,.6-.94C70.4,47.5,70.2,47,69.9,47.12Z"/><path class="cls-7" d="M63,38.79c-3.7.93-7.24,5.17-7.42,9a2.86,2.86,0,0,0,2.21,3.27,5.8,5.8,0,0,0,4.18-1c.4-.23.77-.49,1.17-.75,1.22-.82,2.84-3.81,2.24-4.51s-1.52.5-1.52.5a6.51,6.51,0,0,1-1.95,2,2.58,2.58,0,0,1-.44.22c-1.35.55-2,.18-2-1.07,0-1.93,2.45-4.61,4.35-4.81"/></svg>