<svg id="Layer_1" data-name="Layer 1" xmlns="http://www.w3.org/2000/svg" xmlns:xlink="http://www.w3.org/1999/xlink" viewBox="0 0 140 100"><defs><style>.cls-1{fill:none;}.cls-2{clip-path:url(#clip-path);}.cls-3{fill:#7f3f0f;}.cls-4{fill:#fff;}.cls-5{fill:#edba00;}</style><clipPath id="clip-path"><rect class="cls-1" x="36" y="-101" width="68" height="68"/></clipPath></defs><title>event-cross</title><rect class="cls-1" width="140" height="100"/><g class="cls-2"><image width="1920" height="1080" transform="translate(-47.56 -115.28) scale(0.12)" xlink:href="../../../../!HOP%20THE%20FENCE/SMASH%20N%20SPLASH%205/TRANSITION/SNS5%20Event%20Statics%20Omnibus_100%20Intermission%20Slide.png"/></g><path class="cls-3" d="M132,35l-8.87-.19V31.28H112.41v7.27a9.21,9.21,0,0,0-3.06.59,8.32,8.32,0,0,0-2.67,1.58c0-.55-.1-1.13-.18-1.71a7.21,7.21,0,0,0-2-4.2,8.39,8.39,0,0,0-6-2.45,10.3,10.3,0,0,0-1.45.1,9.23,9.23,0,0,0-4.55,2.07,3.16,3.16,0,0,0-.63,4.4l.35.53a7.23,7.23,0,0,0-.44.64,8.61,8.61,0,0,0-5.28-1.81,9.25,9.25,0,0,0-5,1.5,9.7,9.7,0,0,0-1.85,1.54A6.87,6.87,0,0,0,75.5,40L75,40a6.31,6.31,0,0,0-.76.08,3.19,3.19,0,0,0-1.64-.44h-.18L70,39.75l-.19-5.06h-4c-.31,0-.59,0-.87.06l-.33,0-2.7.19a8.22,8.22,0,0,0-3.68,1.73,5.55,5.55,0,0,0-1.59,2.36l-5.4.21a9.07,9.07,0,0,0-8.33-6.18,10.33,10.33,0,0,0-1.45.11A9,9,0,0,0,35.22,37c-.18.27-.35.54-.5.82a7.61,7.61,0,0,0-.72-.25,7.9,7.9,0,0,0-2.11-.3,6.56,6.56,0,0,0-1.47.16A3,3,0,0,0,29,37.1H28.9l2.3-3.56-7.79-4.26-.92,1.54a10.91,10.91,0,0,0-2.81-.37,10.56,10.56,0,0,0-3.75.7,11.87,11.87,0,0,0-6.2,5.48A14.17,14.17,0,0,0,8.12,41.8a11.42,11.42,0,0,0,1.1,7,10.47,10.47,0,0,0,7.19,5.52,14,14,0,0,0,3.14.33l1,0a9.5,9.5,0,0,0,2.64-.49l.17,1.79,14.55-1.57v9a4,4,0,0,0,4,4H71.66v.32a3.06,3.06,0,0,0,1.19,2.27,3.84,3.84,0,0,0,2.39.79,4.08,4.08,0,0,0,2.13-.59,4.17,4.17,0,0,0,1.81-2.75l0,0h21a1.9,1.9,0,0,0,1.9-1.9V50.84l2.11-.05a8.37,8.37,0,0,0,6,5.26,8.72,8.72,0,0,0,2.13.28h.17v.86L122.63,57V54a7.76,7.76,0,0,0,2,.26h0a5.84,5.84,0,0,0,6-4.15,6.2,6.2,0,0,0-.27-4.78h1.38Zm-8.87.37v-.15C123.2,35.28,123.22,35.34,123.13,35.36Z"/><path class="cls-4" d="M61.51,55.29l1.46.47L62,58.12c-.25-.14-.48-.29-.73-.41a2.59,2.59,0,0,0-3.37.86,3.79,3.79,0,0,0-.35,3.75,2.26,2.26,0,0,0,1.89,1.38,3.21,3.21,0,0,0,2.65-.76l.08-.06.06.06c.21.36.43.73.63,1.1a.21.21,0,0,1,0,.18,3.08,3.08,0,0,1-1.67.92,6.92,6.92,0,0,1-1.2.16,3.92,3.92,0,0,1-3.7-1.85,4.61,4.61,0,0,1-.69-2.37,6,6,0,0,1,.24-2.14,4.7,4.7,0,0,1,1.84-2.47,3.94,3.94,0,0,1,2.58-.66,8.62,8.62,0,0,1,.87.11c.13,0,.19,0,.23-.14S61.45,55.47,61.51,55.29Z"/><path class="cls-4" d="M77.37,62.85l.75-2.37c-.32,0-.62,0-.91,0s-.21-.05-.21-.2a5.61,5.61,0,0,0,0-.71c0-.09,0-.13.12-.13h3l-.17.5-2.56,7.47a2.25,2.25,0,0,1-.91,1.23,2.34,2.34,0,0,1-2.53-.09,1.32,1.32,0,0,1-.52-1,1.74,1.74,0,0,1,.27-1.17A1.49,1.49,0,0,1,75.48,66a1.3,1.3,0,0,1,.29.33.2.2,0,0,1-.08.34,2.74,2.74,0,0,0-.36.23c-.11.08-.21.16-.37.07s-.26,0-.33.15a.32.32,0,0,0,.05.41.59.59,0,0,0,.55.16,1.09,1.09,0,0,0,.81-.83c.24-.71.46-1.42.69-2.13a.24.24,0,0,0,0-.2c-.6-.92-1.21-1.83-1.82-2.75a.34.34,0,0,0-.29-.16l-.83,0c-.1,0-.13,0-.13-.13,0-.39-.05-.77-.08-1.16,0-.11,0-.16.14-.17.53,0,1.07,0,1.6,0,.07,0,.17.07.22.13l1.72,2.43Z"/><path class="cls-4" d="M49.59,63.49l-.87-.37c-.14,0-.11-.16-.09-.25a1.14,1.14,0,0,1,.65-.82,1.49,1.49,0,0,1,1.74.27,1.69,1.69,0,0,1,.41,1.41A2.11,2.11,0,0,1,50.87,65a1.81,1.81,0,0,1-.84.47,2.6,2.6,0,0,1-1.86-.13,2.25,2.25,0,0,1-1.31-1.69,6.71,6.71,0,0,1-.08-1.1c0-.9,0-1.79,0-2.68,0-.13,0-.17-.17-.16h-.7c-.11,0-.14,0-.14-.15,0-.39,0-.78,0-1.18,0-.1,0-.13.13-.13s.51,0,.76,0,.18,0,.18-.19c0-.74,0-1.48,0-2.22,0-.13,0-.18.16-.18h1.17c.12,0,.16,0,.16.16,0,.73,0,1.45,0,2.18,0,.18.06.22.23.21h2.09c0,.36,0,.73,0,1.1,0,0-.11.09-.17.09-.64,0-1.28,0-1.92,0h-.18v2.12c0,.51,0,1,0,1.55,0,.09,0,.18.05.28a1,1,0,0,0,1.26.7.71.71,0,0,0,.41-.78.25.25,0,0,0-.15-.15.29.29,0,0,0-.21.08A.76.76,0,0,0,49.59,63.49Z"/><path class="cls-4" d="M83.14,59.45c0,1.27,0,2.52.09,3.76a1,1,0,0,0,1.24.91.72.72,0,0,0,.47-.79.28.28,0,0,0-.16-.16.29.29,0,0,0-.21.08,1.08,1.08,0,0,0-.14.24c-.3-.13-.6-.25-.89-.39,0,0-.07-.16-.06-.24a1.08,1.08,0,0,1,.63-.8,1.46,1.46,0,0,1,1.9.45,1.73,1.73,0,0,1,.27,1.18,1.92,1.92,0,0,1-.91,1.58,2.31,2.31,0,0,1-1.28.32,2.47,2.47,0,0,1-1.76-.73,2.4,2.4,0,0,1-.69-1.69c0-1.09,0-2.18,0-3.27,0-.14,0-.19-.19-.19s-.45,0-.68,0-.14,0-.14-.13c0-.4,0-.8,0-1.2,0-.1,0-.13.13-.13h.77c.13,0,.17,0,.17-.18,0-.74,0-1.48,0-2.22,0-.15,0-.19.19-.19h1.11c.15,0,.19,0,.19.19,0,.72,0,1.45,0,2.17,0,.16,0,.2.2.19h2.13c0,.25,0,.5,0,.76,0,.44,0,.44-.47.44l-1.64,0Z"/><path class="cls-4" d="M95.39,65.3H94.06l-.81,0c-.13,0-.17,0-.17-.17s0-.48,0-.72,0-.16.17-.16h.51c.09,0,.13,0,.13-.12V59.67H93v-1h2.46v.89l.13-.08a2.27,2.27,0,0,1,2.82-.1A2.06,2.06,0,0,1,99.16,61c0,1,0,1.94,0,2.91v.19l.66,0a.83.83,0,0,1,0,.13c0,.36,0,.72,0,1.08,0,.1,0,.15-.14.15h-2c-.16,0-.13-.1-.13-.19,0-1.3,0-2.6,0-3.9a.89.89,0,0,0-.8-1,1.34,1.34,0,0,0-1.31.65.38.38,0,0,0,0,.19l-.06,3.81C95.41,65.12,95.4,65.2,95.39,65.3Z"/><path class="cls-4" d="M43.66,61.54A1.19,1.19,0,0,0,42.6,60.3a2.21,2.21,0,0,0-1.5.48l-.19.15h0c-.21-.32-.42-.64-.62-1,0,0,0-.12.07-.16a3.22,3.22,0,0,1,1.55-.75,2.93,2.93,0,0,1,2.66.78,2.18,2.18,0,0,1,.63,1.38c.07.8.08,1.6.12,2.41v.53c.2,0,.37,0,.55,0s.13.07.13.1c0,.41,0,.83,0,1.27l-2.16.06v-.52l-.14.08a2.1,2.1,0,0,1-1.46.36,2.88,2.88,0,0,1-1.53-.6,2,2,0,0,1,0-3.06,2.66,2.66,0,0,1,1.81-.62A2.3,2.3,0,0,1,43.66,61.54Zm.05,1.77c0-.1,0-.23,0-.37s-.06-.18-.16-.24a2,2,0,0,0-1.13-.2.9.9,0,0,0-.82.69.88.88,0,0,0,.47,1,1.31,1.31,0,0,0,1.31-.08.57.57,0,0,0,.35-.64A.87.87,0,0,1,43.71,63.31Z"/><path class="cls-4" d="M68.27,61c-.21-.33-.42-.65-.62-1a.15.15,0,0,1,0-.14A3.2,3.2,0,0,1,70.17,59a3.08,3.08,0,0,1,1.14.35,2.26,2.26,0,0,1,1.24,1.82c.09.79.09,1.59.12,2.39,0,.19,0,.37,0,.58.21,0,.39,0,.56,0s.13.06.13.09c0,.42,0,.84,0,1.28l-2.16.06v-.53a4.29,4.29,0,0,1-.38.23,2.3,2.3,0,0,1-1.61.16,2.36,2.36,0,0,1-1.66-1.17,2.09,2.09,0,0,1,.85-2.68,2.65,2.65,0,0,1,2.6-.08h0a1.15,1.15,0,0,0-.84-1.18,1.85,1.85,0,0,0-1.46.28Zm2.85,2.38h0c0-.12,0-.24,0-.37s-.06-.2-.18-.26a1.84,1.84,0,0,0-1.13-.19.86.86,0,0,0-.82.85.91.91,0,0,0,.7.94,1.34,1.34,0,0,0,1.13-.19.53.53,0,0,0,.31-.6A1.08,1.08,0,0,1,71.12,63.33Z"/><path class="cls-4" d="M92.93,62.21a3.28,3.28,0,0,1-1.06,2.54,3.1,3.1,0,0,1-3.16.58,2.9,2.9,0,0,1-2-2.52A3.07,3.07,0,0,1,87.63,60a3.12,3.12,0,0,1,5.25,1.57,2.56,2.56,0,0,1,.05.27Zm-3.06,1.92a2.66,2.66,0,0,0,.28,0,1.72,1.72,0,0,0,1.22-1.19,1.87,1.87,0,0,0-.64-2.1,1.37,1.37,0,0,0-1.12-.33,1.65,1.65,0,0,0-1,.59,2,2,0,0,0-.3,2.2A1.71,1.71,0,0,0,89.87,64.13Z"/><path class="cls-4" d="M66.11,59.56v4.18c0,.24,0,.24.25.24l.44,0c.1,0,.14,0,.14.13,0,.36,0,.71,0,1.06,0,.11,0,.13-.13.13L64,65.39c-.1,0-.14,0-.14-.14,0-.39,0-.78,0-1.16,0-.13,0-.19.16-.18s.29,0,.43,0,.2,0,.2-.2c0-1.13,0-2.26,0-3.39,0-1.28,0-2.56,0-3.84,0-.24,0-.24-.23-.24l-.67,0c-.09,0-.13,0-.13-.12,0-.3,0-.6,0-.9,0-.11,0-.14.15-.14l2.24,0c.15,0,.17.07.17.19v4.22Z"/><path class="cls-4" d="M61.51,55.29l1.46.47L62,58.12c-.25-.14-.48-.29-.73-.41a2.59,2.59,0,0,0-3.37.86,3.79,3.79,0,0,0-.35,3.75,2.26,2.26,0,0,0,1.89,1.38,3.21,3.21,0,0,0,2.65-.76l.08-.06.06.06c.21.36.43.73.63,1.1a.21.21,0,0,1,0,.18,3.08,3.08,0,0,1-1.67.92,6.92,6.92,0,0,1-1.2.16,3.92,3.92,0,0,1-3.7-1.85,4.61,4.61,0,0,1-.69-2.37,6,6,0,0,1,.24-2.14,4.7,4.7,0,0,1,1.84-2.47,3.94,3.94,0,0,1,2.58-.66,8.62,8.62,0,0,1,.87.11c.13,0,.19,0,.23-.14S61.45,55.47,61.51,55.29Z"/><path class="cls-4" d="M77.37,62.85l.75-2.37c-.32,0-.62,0-.91,0s-.21-.05-.21-.2a5.61,5.61,0,0,0,0-.71c0-.09,0-.13.12-.13h3l-.17.5-2.56,7.47a2.25,2.25,0,0,1-.91,1.23,2.34,2.34,0,0,1-2.53-.09,1.32,1.32,0,0,1-.52-1,1.74,1.74,0,0,1,.27-1.17A1.49,1.49,0,0,1,75.48,66a1.3,1.3,0,0,1,.29.33.2.2,0,0,1-.08.34,2.74,2.74,0,0,0-.36.23c-.11.08-.21.16-.37.07s-.26,0-.33.15a.32.32,0,0,0,.05.41.59.59,0,0,0,.55.16,1.09,1.09,0,0,0,.81-.83c.24-.71.46-1.42.69-2.13a.24.24,0,0,0,0-.2c-.6-.92-1.21-1.83-1.82-2.75a.34.34,0,0,0-.29-.16l-.83,0c-.1,0-.13,0-.13-.13,0-.39-.05-.77-.08-1.16,0-.11,0-.16.14-.17.53,0,1.07,0,1.6,0,.07,0,.17.07.22.13l1.72,2.43Z"/><path class="cls-4" d="M49.59,63.49l-.87-.37c-.14,0-.11-.16-.09-.25a1.14,1.14,0,0,1,.65-.82,1.49,1.49,0,0,1,1.74.27,1.69,1.69,0,0,1,.41,1.41A2.11,2.11,0,0,1,50.87,65a1.81,1.81,0,0,1-.84.47,2.6,2.6,0,0,1-1.86-.13,2.25,2.25,0,0,1-1.31-1.69,6.71,6.71,0,0,1-.08-1.1c0-.9,0-1.79,0-2.68,0-.13,0-.17-.17-.16h-.7c-.11,0-.14,0-.14-.15,0-.39,0-.78,0-1.18,0-.1,0-.13.13-.13s.51,0,.76,0,.18,0,.18-.19c0-.74,0-1.48,0-2.22,0-.13,0-.18.16-.18h1.17c.12,0,.16,0,.16.16,0,.73,0,1.45,0,2.18,0,.18.06.22.23.21h2.09c0,.36,0,.73,0,1.1,0,0-.11.09-.17.09-.64,0-1.28,0-1.92,0h-.18v2.12c0,.51,0,1,0,1.55,0,.09,0,.18.05.28a1,1,0,0,0,1.26.7.71.71,0,0,0,.41-.78.25.25,0,0,0-.15-.15.29.29,0,0,0-.21.08A.76.76,0,0,0,49.59,63.49Z"/><path class="cls-4" d="M83.14,59.45c0,1.27,0,2.52.09,3.76a1,1,0,0,0,1.24.91.72.72,0,0,0,.47-.79.28.28,0,0,0-.16-.16.29.29,0,0,0-.21.08,1.08,1.08,0,0,0-.14.24c-.3-.13-.6-.25-.89-.39,0,0-.07-.16-.06-.24a1.08,1.08,0,0,1,.63-.8,1.46,1.46,0,0,1,1.9.45,1.73,1.73,0,0,1,.27,1.18,1.92,1.92,0,0,1-.91,1.58,2.31,2.31,0,0,1-1.28.32,2.47,2.47,0,0,1-1.76-.73,2.4,2.4,0,0,1-.69-1.69c0-1.09,0-2.18,0-3.27,0-.14,0-.19-.19-.19s-.45,0-.68,0-.14,0-.14-.13c0-.4,0-.8,0-1.2,0-.1,0-.13.13-.13h.77c.13,0,.17,0,.17-.18,0-.74,0-1.48,0-2.22,0-.15,0-.19.19-.19h1.11c.15,0,.19,0,.19.19,0,.72,0,1.45,0,2.17,0,.16,0,.2.2.19h2.13c0,.25,0,.5,0,.76,0,.44,0,.44-.47.44l-1.64,0Z"/><path class="cls-4" d="M95.39,65.3H94.06l-.81,0c-.13,0-.17,0-.17-.17s0-.48,0-.72,0-.16.17-.16h.51c.09,0,.13,0,.13-.12V59.67H93v-1h2.46v.89l.13-.08a2.27,2.27,0,0,1,2.82-.1A2.06,2.06,0,0,1,99.16,61c0,1,0,1.94,0,2.91v.19l.66,0a.83.83,0,0,1,0,.13c0,.36,0,.72,0,1.08,0,.1,0,.15-.14.15h-2c-.16,0-.13-.1-.13-.19,0-1.3,0-2.6,0-3.9a.89.89,0,0,0-.8-1,1.34,1.34,0,0,0-1.31.65.38.38,0,0,0,0,.19l-.06,3.81C95.41,65.12,95.4,65.2,95.39,65.3Z"/><path class="cls-4" d="M43.66,61.54A1.19,1.19,0,0,0,42.6,60.3a2.21,2.21,0,0,0-1.5.48l-.19.15h0c-.21-.32-.42-.64-.62-1,0,0,0-.12.07-.16a3.22,3.22,0,0,1,1.55-.75,2.93,2.93,0,0,1,2.66.78,2.18,2.18,0,0,1,.63,1.38c.07.8.08,1.6.12,2.41v.53c.2,0,.37,0,.55,0s.13.07.13.1c0,.41,0,.83,0,1.27l-2.16.06v-.52l-.14.08a2.1,2.1,0,0,1-1.46.36,2.88,2.88,0,0,1-1.53-.6,2,2,0,0,1,0-3.06,2.66,2.66,0,0,1,1.81-.62A2.3,2.3,0,0,1,43.66,61.54Zm.05,1.77c0-.1,0-.23,0-.37s-.06-.18-.16-.24a2,2,0,0,0-1.13-.2.9.9,0,0,0-.82.69.88.88,0,0,0,.47,1,1.31,1.31,0,0,0,1.31-.08.57.57,0,0,0,.35-.64A.87.87,0,0,1,43.71,63.31Z"/><path class="cls-4" d="M68.27,61c-.21-.33-.42-.65-.62-1a.15.15,0,0,1,0-.14A3.2,3.2,0,0,1,70.17,59a3.08,3.08,0,0,1,1.14.35,2.26,2.26,0,0,1,1.24,1.82c.09.79.09,1.59.12,2.39,0,.19,0,.37,0,.58.21,0,.39,0,.56,0s.13.06.13.09c0,.42,0,.84,0,1.28l-2.16.06v-.53a4.29,4.29,0,0,1-.38.23,2.3,2.3,0,0,1-1.61.16,2.36,2.36,0,0,1-1.66-1.17,2.09,2.09,0,0,1,.85-2.68,2.65,2.65,0,0,1,2.6-.08h0a1.15,1.15,0,0,0-.84-1.18,1.85,1.85,0,0,0-1.46.28Zm2.85,2.38h0c0-.12,0-.24,0-.37s-.06-.2-.18-.26a1.84,1.84,0,0,0-1.13-.19.86.86,0,0,0-.82.85.91.91,0,0,0,.7.94,1.34,1.34,0,0,0,1.13-.19.53.53,0,0,0,.31-.6A1.08,1.08,0,0,1,71.12,63.33Z"/><path class="cls-4" d="M92.93,62.21a3.28,3.28,0,0,1-1.06,2.54,3.1,3.1,0,0,1-3.16.58,2.9,2.9,0,0,1-2-2.52A3.07,3.07,0,0,1,87.63,60a3.12,3.12,0,0,1,5.25,1.57,2.56,2.56,0,0,1,.05.27Zm-3.06,1.92a2.66,2.66,0,0,0,.28,0,1.72,1.72,0,0,0,1.22-1.19,1.87,1.87,0,0,0-.64-2.1,1.37,1.37,0,0,0-1.12-.33,1.65,1.65,0,0,0-1,.59,2,2,0,0,0-.3,2.2A1.71,1.71,0,0,0,89.87,64.13Z"/><path class="cls-4" d="M66.11,59.56v4.18c0,.24,0,.24.25.24l.44,0c.1,0,.14,0,.14.13,0,.36,0,.71,0,1.06,0,.11,0,.13-.13.13L64,65.39c-.1,0-.14,0-.14-.14,0-.39,0-.78,0-1.16,0-.13,0-.19.16-.18s.29,0,.43,0,.2,0,.2-.2c0-1.13,0-2.26,0-3.39,0-1.28,0-2.56,0-3.84,0-.24,0-.24-.23-.24l-.67,0c-.09,0-.13,0-.13-.12,0-.3,0-.6,0-.9,0-.11,0-.14.15-.14l2.24,0c.15,0,.17.07.17.19v4.22Z"/><path class="cls-5" d="M115.31,42.33V34.18h4.92v2.6l-1.66.12c-.06,4.89-.13,9.75-.2,14.63h1.36v2.58l-4.35.1v-1.8a5.46,5.46,0,0,1-.48.34,5.3,5.3,0,0,1-4,.49,5.45,5.45,0,0,1-4.19-4.06,6.12,6.12,0,0,1,.18-3.69,5.66,5.66,0,0,1,3.45-3.63,5.11,5.11,0,0,1,4.89.46Zm-.1,5.06h0a7.74,7.74,0,0,1,0-1.18,1.36,1.36,0,0,0-.73-1.43,3.06,3.06,0,0,0-3.79.12,3.37,3.37,0,0,0-1.16,3.44,3.08,3.08,0,0,0,1.85,2.36,3,3,0,0,0,3.73-1.28.56.56,0,0,0,.06-.29C115.21,48.55,115.21,48,115.21,47.39Z"/><path class="cls-5" d="M24.37,38.78a6.42,6.42,0,0,0-1.94-1.61,4.93,4.93,0,0,0-4.9.08,6.45,6.45,0,0,0-3,4,7,7,0,0,0-.33,3.24,4.65,4.65,0,0,0,3.45,4,6.2,6.2,0,0,0,5.11-.56l.15-.08H23l.89,2.65a5.88,5.88,0,0,1-3.49,1.25,12.16,12.16,0,0,1-3.35-.24,7.52,7.52,0,0,1-5.27-4A8.6,8.6,0,0,1,11,42.18a11.14,11.14,0,0,1,1.26-4.13A9,9,0,0,1,17,33.86a7.62,7.62,0,0,1,5.14-.13l1.69.55.67-1.12,2.61,1.42Z"/><path class="cls-5" d="M105.31,47.86,101,48V47h-.11a4.15,4.15,0,0,1-3.32.76,4.93,4.93,0,0,1-3.35-1.88,3.43,3.43,0,0,1-.54-3,4.11,4.11,0,0,1,3.51-3.25,4.94,4.94,0,0,1,3.61.55,7.07,7.07,0,0,0-.17-.85,2.35,2.35,0,0,0-2.77-1.57,4.89,4.89,0,0,0-2.12.94l-.4.31-.16-.22c-.33-.52-.65-1-1-1.56-.16-.22-.1-.34.09-.48a6.33,6.33,0,0,1,3.12-1.45,5.66,5.66,0,0,1,5,1.54,4.36,4.36,0,0,1,1.19,2.55c.13.89.18,1.8.23,2.7s0,1.87,0,2.8c0,.26.09.33.34.31a4.92,4.92,0,0,1,.77,0c.07,0,.21.1.21.16C105.25,46.19,105.28,47,105.31,47.86Zm-4.43-4.16c0-.34,0-.62-.06-.89a.47.47,0,0,0-.2-.32,3.47,3.47,0,0,0-2.4-.43,1.73,1.73,0,0,0-.52,3.28,2.51,2.51,0,0,0,2.71-.3.89.89,0,0,0,.47-.95A1.67,1.67,0,0,1,100.88,43.7Z"/><path class="cls-5" d="M92.41,47.28A6.53,6.53,0,0,1,90.49,52a5.56,5.56,0,0,1-3.57,1.6,6.64,6.64,0,0,1-3.3-.54,5.68,5.68,0,0,1-3.33-4.61A6.13,6.13,0,0,1,91.8,44.63,5.52,5.52,0,0,1,92.41,47.28Zm-6,3.71c.21,0,.44,0,.65-.08a3.16,3.16,0,0,0,2.08-1.69,3.41,3.41,0,0,0,.47-2,3.91,3.91,0,0,0-1.38-2.64,2.71,2.71,0,0,0-2.93-.48,4,4,0,0,0-2.12,3.94,3,3,0,0,0,1,2A3.68,3.68,0,0,0,86.37,51Z"/><path class="cls-5" d="M25.74,50.3c.47,0,.93-.09,1.4-.12.21,0,.27-.09.24-.3-.24-2.35-.49-4.7-.72-7.05,0-.19-.09-.24-.27-.23l-1.58.08c-.07-.73-.14-1.42-.19-2.11,0,0,.14-.17.22-.18l1.62-.16L28.77,40c.36,0,.36,0,.38.33s.05.61.08.93l.12-.06a3.77,3.77,0,0,1,3.85-.84,3.24,3.24,0,0,1,2.22,1.9,3.07,3.07,0,0,1-.75,3.51l-2.09-1.32a3,3,0,0,0,.31-.63.87.87,0,0,0-.74-1,1.9,1.9,0,0,0-2.42,1.94c.18,1.67.29,3.36.42,5,0,.23.09.31.33.28.64-.07,1.28-.11,1.91-.17.17,0,.28,0,.29.2,0,.6.11,1.19.18,1.84L26,52.69Z"/><path class="cls-5" d="M72.88,43.88a3.31,3.31,0,0,1,2.34-1c2.47-.17,4.65,1.84,3.77,4.47a3,3,0,0,1-.89,1.25L76,47.16l.15-.18A.83.83,0,0,0,76,45.63a1.79,1.79,0,0,0-1.78,0,1.72,1.72,0,0,0-1,1.63c.05,1.7.11,3.39.16,5.09,0,.25.08.32.33.31.62,0,1.24,0,1.86-.08.21,0,.32,0,.32.26,0,.58.05,1.16.08,1.8l-6.89.39a.88.88,0,0,1,0-.2c0-.62-.07-1.24-.12-1.86,0-.24,0-.35.31-.35.44,0,.89,0,1.37,0,0-.12,0-.22,0-.33-.11-2.31-.24-4.62-.35-6.93,0-.26-.09-.35-.35-.33s-.82,0-1.23,0c-.17,0-.25,0-.25-.21,0-.61-.07-1.22-.11-1.83,0-.18.06-.23.22-.24l4.06-.18c.19,0,.26.06.26.24C72.84,43.12,72.87,43.46,72.88,43.88Z"/><path class="cls-5" d="M55.67,46.64c0-.11,0-.18,0-.24A1.49,1.49,0,0,0,53.7,45a1.34,1.34,0,0,0-1.25,1.28A1.26,1.26,0,0,0,53,47.47c.52.41,1.09.78,1.63,1.19a19.74,19.74,0,0,1,1.83,1.45,3.19,3.19,0,0,1,.68,3.67,2.87,2.87,0,0,1-2.51,1.89,5.26,5.26,0,0,1-2.8-.37,3.18,3.18,0,0,1-1.75-4c.14-.44.14-.44.58-.27l1.63.61c.19.06.25.14.18.35a1,1,0,0,0,.41,1.21,1.14,1.14,0,0,0,1.31,0,1.13,1.13,0,0,0,.07-1.69,11,11,0,0,0-1.37-1.07,15.55,15.55,0,0,1-2.16-1.64,3.91,3.91,0,0,1-.62-4.49A3.83,3.83,0,0,1,55.15,43l.3.16V42l2.23-.1c0,.31,0,.58,0,.85,0,1.17.08,2.34.13,3.51,0,.18,0,.26-.22.27C57,46.56,56.34,46.6,55.67,46.64Z"/><path class="cls-5" d="M59.46,46.53c.8.3,1.5.57,2.21.82.17.07.13.17.1.3a1.06,1.06,0,0,0,.31,1.17,1.1,1.1,0,0,0,1.52-1.59,5.85,5.85,0,0,0-.88-.77c-.73-.53-1.51-1-2.21-1.56A3.78,3.78,0,0,1,60.28,39a3.78,3.78,0,0,1,4.27-.31l.21.11V37.67c.39,0,.75-.06,1.11-.07s.72,0,1.13,0l.18,4.58L65,42.29c0-.13,0-.23,0-.33A1.49,1.49,0,0,0,63,40.68,1.37,1.37,0,0,0,61.77,42a1.23,1.23,0,0,0,.52,1.15q.78.62,1.62,1.17a10.54,10.54,0,0,1,1.9,1.5A3.27,3.27,0,0,1,66.57,49a3,3,0,0,1-2.93,2.35,4.49,4.49,0,0,1-3.27-.86,3,3,0,0,1-1.14-2.64A11.46,11.46,0,0,1,59.46,46.53Z"/><path class="cls-5" d="M126.74,38.89l.07-1.11,2.22,0c0,1.54-.08,3.05-.12,4.61l-2.2,0a1.78,1.78,0,0,0,0-.35,1.49,1.49,0,0,0-1.82-1.38,1.36,1.36,0,0,0-1.34,1.19,1.25,1.25,0,0,0,.43,1.18c.5.45,1,.88,1.56,1.29a10.46,10.46,0,0,1,1.79,1.6,3.22,3.22,0,0,1,.55,3.27,3,3,0,0,1-3.22,2.16,5,5,0,0,1-2.24-.52,3.11,3.11,0,0,1-1.74-3.55c.07-.33.19-.64.29-1l.72.3,1.33.6c.16.07.25.13.17.35a1,1,0,0,0,.25,1.19A1.1,1.1,0,0,0,125,47.23,13.51,13.51,0,0,0,123.68,46c-.64-.56-1.34-1.07-1.94-1.67a3.6,3.6,0,0,1-1-2.64,3.69,3.69,0,0,1,5.48-3.17Z"/><g id="ahgJ9V.tif"><path class="cls-5" d="M41.82,39.76c0,1.16,0,2.32,0,3.48,0,.19,0,.27.25.26a5.61,5.61,0,0,1,.58,0h5.77c.21,0,.3,0,.34-.27a5.93,5.93,0,0,0,0-1.88A6.25,6.25,0,0,0,42.11,36c-.22,0-.29.07-.29.3C41.83,37.45,41.82,38.6,41.82,39.76Zm6.45,5H42.09c-.14,0-.27,0-.27.19,0,1.07,0,2.15,0,3.22,0,.14.06.21.19.2a10.56,10.56,0,0,0,1.49,0,6.12,6.12,0,0,0,3.75-2A6,6,0,0,0,48.27,44.8Zm-9.71-7.29-.12.07a12.74,12.74,0,0,0-1.06,1.27,6.16,6.16,0,0,0-.93,4.39c0,.18.09.27.3.26.5,0,1,0,1.5,0,.3,0,.3,0,.3-.3,0-1.8,0-3.6,0-5.4Zm0,9.43c0-.7,0-1.35,0-2,0,0-.08-.13-.12-.13h-1.5A6.2,6.2,0,0,0,38.55,46.94Z"/><path class="cls-5" d="M41.82,39.76c0-1.16,0-2.31,0-3.46,0-.23.07-.28.29-.3a6.25,6.25,0,0,1,6.67,5.35,5.93,5.93,0,0,1,0,1.88c0,.23-.13.27-.34.27H42.65a5.61,5.61,0,0,0-.58,0c-.2,0-.25-.07-.25-.26C41.83,42.08,41.82,40.92,41.82,39.76Z"/><path class="cls-5" d="M48.27,44.8a6,6,0,0,1-1,1.58,6.12,6.12,0,0,1-3.75,2,10.56,10.56,0,0,1-1.49,0c-.13,0-.19-.06-.19-.2,0-1.07,0-2.15,0-3.22,0-.21.13-.19.27-.19h6.18Z"/><path class="cls-5" d="M38.56,37.51v.28c0,1.8,0,3.6,0,5.4,0,.3,0,.3-.3.3-.5,0-1,0-1.5,0-.21,0-.27-.08-.3-.26a6.16,6.16,0,0,1,.93-4.39,12.74,12.74,0,0,1,1.06-1.27Z"/><path class="cls-5" d="M38.55,46.94a6.2,6.2,0,0,1-1.62-2.14h1.5s.12.09.12.13C38.56,45.59,38.55,46.24,38.55,46.94Z"/></g></svg>