<svg id="Layer_1" data-name="Layer 1" xmlns="http://www.w3.org/2000/svg" viewBox="0 0 140 100"><defs><style>.cls-1{fill:none;}.cls-2{fill:#1e1e1e;}.cls-3{fill:#eaa001;}</style></defs><title>event-hvsv</title><rect class="cls-1" width="140" height="100"/><path class="cls-2" d="M35.45,17.26l-.63-1.45h4.45l-.62,1.45V26h4V17.26L42,15.81h4.45l-.62,1.45V38l.62,1.46H42L42.63,38V29.24h-4V38l.62,1.46H34.82L35.45,38Z"/><path class="cls-2" d="M51.21,29v7.24h5l1.49-.64-.51,3.8v0H47.38L48,38V17.26l-.62-1.45h9.45l0,.29.48,3.56L55.86,19H51.21v6.82h1.92l1.46-.62V29Z"/><path class="cls-2" d="M62.51,15.8v0h1.54a5.76,5.76,0,0,1,5.85,5.67v3.14a5.65,5.65,0,0,1-2.84,4.87l3.07,8.8.9,1.18H67.16L64,30.31H62.51V38l.63,1.45H58.69L59.31,38V17.25l-.62-1.45Zm0,11.3h1.54a2.56,2.56,0,0,0,2.65-2.47V21.49A2.57,2.57,0,0,0,64.05,19H62.51Z"/><path class="cls-2" d="M75.91,39.48a4.35,4.35,0,0,1-4.35-4.35V19.79a4.35,4.35,0,0,1,4.35-4.35h2a4.35,4.35,0,0,1,4.35,4.35V35.13a4.35,4.35,0,0,1-4.35,4.35ZM74.77,19.79V35.13a1.14,1.14,0,0,0,1.14,1.14h2A1.15,1.15,0,0,0,79,35.13V19.79a1.16,1.16,0,0,0-1.15-1.15h-2A1.15,1.15,0,0,0,74.77,19.79Z"/><path class="cls-2" d="M87,29v7.24h5l1.49-.64-.51,3.8v0H83.19L83.82,38V17.26l-.63-1.45h9.46l0,.29.48,3.56L91.67,19H87v6.82H89l1.45-.62V29Z"/><path class="cls-2" d="M97.71,35.13a1.14,1.14,0,0,0,1.14,1.14h2A1.15,1.15,0,0,0,102,35.13V30.31a1.15,1.15,0,0,0-1.14-1.15l-2,0a4.35,4.35,0,0,1-4.35-4.34v-4.7a4.35,4.35,0,0,1,4.35-4.35h2a4.35,4.35,0,0,1,4.35,4.35V22.5h-3.81l.61-1.41v-.94A1.16,1.16,0,0,0,100.83,19h-2a1.15,1.15,0,0,0-1.14,1.15v4.7A1.14,1.14,0,0,0,98.84,26l2,0a4.35,4.35,0,0,1,4.35,4.35v4.82a4.35,4.35,0,0,1-4.35,4.35h-2a4.35,4.35,0,0,1-4.35-4.35V32.78h3.85l-.64,1.5h0Z"/><path class="cls-2" d="M38.45,62.34,37.87,61h5l-1.13,1.48-4.35,20.4.82,1.66H37v0l-2.43,0H32.7l.82-1.63L29.45,62.36l-1-1.36h4.95l-.63,1.46,2.74,13.82Z"/><path class="cls-2" d="M44,62.39l-.62-1.45h4.45l-.62,1.45V83.11l.62,1.45H43.37L44,83.11Z"/><path class="cls-2" d="M48.73,84.56l.61-1.41V62.31l-.61-1.4h4.45l-.64,1.49h0v19h3.77l1.49-.65-.51,3.84H48.73Z"/><path class="cls-2" d="M58.74,84.56l.6-1.41V62.31l-.6-1.4h4.45l-.64,1.49h0v19h3.77l1.49-.65-.52,3.84H58.74Z"/><path class="cls-2" d="M72.31,83.12l.61,1.44H68l1-1.39,4.42-20.64-.82-1.64H78.1l-.83,1.67,4.09,20.65,1,1.35H77.44l.63-1.49-1.33-6.73h-3Zm2.13-10h1.67l-.8-4Z"/><path class="cls-2" d="M83.57,62.39l-.63-1.45h4.45l-.62,1.45V83.11l.62,1.45H82.94l.63-1.45Z"/><path class="cls-2" d="M99.36,83.11l.62,1.45H95.54l.62-1.45v-.48L91.75,71.57V83.11l.62,1.45H87.92l.62-1.45V62.34l-.62-1.45h4.45l-.62,1.45v.59L96.16,74V62.34l-.62-1.45H100l-.62,1.45Z"/><path class="cls-2" d="M104.11,80.21a1.16,1.16,0,0,0,1.15,1.15h2a1.15,1.15,0,0,0,1.14-1.15V75.39a1.13,1.13,0,0,0-1.13-1.14l-2,0a4.35,4.35,0,0,1-4.35-4.35v-4.7a4.35,4.35,0,0,1,4.35-4.35h2a4.35,4.35,0,0,1,4.35,4.35v2.35h-3.81l.6-1.41v-.94a1.14,1.14,0,0,0-1.14-1.14h-2a1.15,1.15,0,0,0-1.15,1.14v4.7a1.14,1.14,0,0,0,1.14,1.14l2,0a4.35,4.35,0,0,1,4.35,4.35v4.82a4.35,4.35,0,0,1-4.35,4.35h-2a4.35,4.35,0,0,1-4.35-4.35V77.86h3.84l-.64,1.5h0Z"/><path class="cls-3" d="M59.62,44.91h3.29l2.29,7.33,2.26-7.33h3.2L66.88,55.09H63.46Z"/><path class="cls-3" d="M71.14,51.72l3-.18a2.27,2.27,0,0,0,.39,1.11,1.68,1.68,0,0,0,1.39.62A1.54,1.54,0,0,0,77,53a1,1,0,0,0,.37-.73.94.94,0,0,0-.35-.71,3.92,3.92,0,0,0-1.61-.59,6.94,6.94,0,0,1-3-1.24,2.49,2.49,0,0,1-.89-2A2.61,2.61,0,0,1,72,46.23a3,3,0,0,1,1.37-1.1,6.3,6.3,0,0,1,2.5-.4,5.08,5.08,0,0,1,3,.73,3.13,3.13,0,0,1,1.22,2.31l-3,.17a1.37,1.37,0,0,0-1.54-1.31,1.3,1.3,0,0,0-.83.23.75.75,0,0,0-.28.57.59.59,0,0,0,.23.44,2.58,2.58,0,0,0,1.06.37,13.65,13.65,0,0,1,3,.9A3.18,3.18,0,0,1,80,50.27a2.87,2.87,0,0,1,.4,1.51,3.25,3.25,0,0,1-.54,1.81,3.33,3.33,0,0,1-1.51,1.25,6.06,6.06,0,0,1-2.46.43c-1.73,0-2.93-.33-3.6-1A4,4,0,0,1,71.14,51.72Z"/><rect class="cls-3" x="85.17" y="49.1" width="26.42" height="1.8"/><rect class="cls-3" x="28.41" y="49.1" width="26.42" height="1.8"/></svg>