<svg id="Layer_1" data-name="Layer 1" xmlns="http://www.w3.org/2000/svg" viewBox="0 0 140 100"><defs><style>.cls-1{fill:#003372;}.cls-2{fill:#eaa001;}.cls-3{fill:none;}</style></defs><title>event-bobc3</title><path class="cls-1" d="M35.45,19h8.34a2.29,2.29,0,0,1,2.32,2.7l-1,7.44a2.58,2.58,0,0,1-1.71,2.21A2.27,2.27,0,0,1,44.88,34l-1.13,8a3.22,3.22,0,0,1-3.07,2.66H31.84ZM38,29.54H41l.91-6.48H38.94Zm1.86,11.09,1-7H37.46l-1,7Z"/><path class="cls-1" d="M55.46,40.32H51.27l-1.16,4.37H45.79L52.73,19h7.21l-.37,25.69H55.38Zm-3.13-4.06h3.2l.24-13.2Z"/><path class="cls-1" d="M67,23.06H63.36L63.93,19H75.2l-.57,4.06H71L68,44.69H63.93Z"/><path class="cls-1" d="M79.13,23.06h-3.6L76.1,19H87.36l-.57,4.06h-3.6l-3,21.63H76.09Z"/><path class="cls-1" d="M89.61,19h4.06l-3,21.63h4.78l-.57,4.06H86Z"/><path class="cls-1" d="M108,44.69H97.54L101.15,19h10.14l-.57,4.06h-6.09l-.91,6.53H108l-.57,4.06h-4.28l-1,7h6.4Z"/><path class="cls-1" d="M30.58,53.37a2.16,2.16,0,0,1,2-1.76h4a1.5,1.5,0,0,1,1.51,1.76L36.23,66.59a2.09,2.09,0,0,1-2,1.73h-4a1.5,1.5,0,0,1-1.51-1.73Zm4.75.88H33.1L31.49,65.68h2.23Z"/><path class="cls-1" d="M38.33,68.32l2.35-16.71h6.59l-.37,2.64H43l-.6,4.25h3.37l-.37,2.64H42l-1,7.18Z"/><path class="cls-1" d="M55.14,51.61h9.54a2.63,2.63,0,0,1,2.66,3.09l-1.2,8.51a3,3,0,0,1-2,2.53,2.59,2.59,0,0,1,1.74,3L64.64,78a3.69,3.69,0,0,1-3.53,3H51Zm2.94,12.07h3.36l1-7.43H59.13Zm2.14,12.68,1.13-8H57.43l-1.13,8Z"/><path class="cls-1" d="M79.27,60.38l.58-4.13H75.93L73.11,76.36H77l.58-4.18h4.64L81.44,78a3.68,3.68,0,0,1-3.52,3h-7a2.65,2.65,0,0,1-2.67-3L71.51,54.7A3.78,3.78,0,0,1,75,51.61h7a2.63,2.63,0,0,1,2.66,3.09l-.8,5.68Z"/><path class="cls-2" d="M95.66,72.34l-.56,4H99l1.06-7.59H95.39L96,64.13h4.7l1.1-7.88H97.92l-.62,4.41H92.66l.85-6a3.55,3.55,0,0,1,3.52-3h7a2.63,2.63,0,0,1,2.66,3.09l-1.26,9a3,3,0,0,1-2.52,2.53,2.59,2.59,0,0,1,1.74,3L103.43,78a3.68,3.68,0,0,1-3.52,3h-7a2.47,2.47,0,0,1-.61,0,2.58,2.58,0,0,1-2.06-3L91,72.34Z"/><rect class="cls-3" width="140" height="100"/></svg>