<svg id="Layer_1" data-name="Layer 1" xmlns="http://www.w3.org/2000/svg" viewBox="0 0 140 100"><defs><style>.cls-1{fill:none;}.cls-2{fill:#fff;}.cls-3{fill:#134982;}.cls-4{fill:#051e39;}.cls-5{fill:#e32934;}</style></defs><title>partner-pepsi</title><rect class="cls-1" width="140" height="100"/><path class="cls-2" d="M39,68.87A18.87,18.87,0,1,1,57.89,50,18.89,18.89,0,0,1,39,68.87Z"/><path class="cls-3" d="M39,31.31A18.69,18.69,0,1,1,20.35,50,18.69,18.69,0,0,1,39,31.31M39,31a19,19,0,1,0,19,19A19.06,19.06,0,0,0,39,31Z"/><path class="cls-4" d="M119.65,42.33a1.29,1.29,0,0,0,.35-.87,1.44,1.44,0,0,0-.35-1,1.3,1.3,0,0,0-.91-.38,1.35,1.35,0,0,0-.91.38,1.3,1.3,0,0,0-.35,1,1.16,1.16,0,0,0,.35.87,1.27,1.27,0,0,0,.91.35A1.23,1.23,0,0,0,119.65,42.33Z"/><path class="cls-4" d="M119.72,55.21V43.91h-1.89l0,11.3Z"/><path class="cls-4" d="M115.35,44.47l-.32-.14a6,6,0,0,0-3.08-.74,5.12,5.12,0,0,0-3.22.95,2.8,2.8,0,0,0-.9,1.05,2.44,2.44,0,0,0-.32,1.22,2.56,2.56,0,0,0,1,2,6.81,6.81,0,0,0,2.62,1.29,7.24,7.24,0,0,1,2.07.95,1.67,1.67,0,0,1,.56,1.22,1.58,1.58,0,0,1-.77,1.3,4.21,4.21,0,0,1-2.07.45,6.72,6.72,0,0,1-2.87-.7l-.24-.17-.8,1.47.28.14a8.1,8.1,0,0,0,3.56.77,6,6,0,0,0,3.47-.91,3.24,3.24,0,0,0,1-1,3,3,0,0,0,.35-1.44v0a2.84,2.84,0,0,0-1-2.17A7.24,7.24,0,0,0,112,48.63a10.48,10.48,0,0,1-2-.87,1.3,1.3,0,0,1-.6-1,1.36,1.36,0,0,1,.56-1.12,3,3,0,0,1,1.72-.46,4.66,4.66,0,0,1,2.52.6l.24.17Z"/><path class="cls-4" d="M103.94,45.31a7.08,7.08,0,0,0-4.76-1.72,6.55,6.55,0,0,0-4.54,1.65,6.46,6.46,0,0,0-2.07,5.11v8.78h1.82V53.46a5.69,5.69,0,0,0,2.1,1.47,6.54,6.54,0,0,0,2.73.56,6.69,6.69,0,0,0,4.72-1.75,5.44,5.44,0,0,0,0-8.43Zm-4.76-.14a5,5,0,0,1,3.47,1.26,4.19,4.19,0,0,1,.17,6.15,5,5,0,0,1-3.6,1.33,5.09,5.09,0,0,1-3.61-1.33,4.08,4.08,0,0,1-1.29-3,4,4,0,0,1,1.29-3A4.85,4.85,0,0,1,99.18,45.17Z"/><path class="cls-4" d="M89.67,45.87a6.36,6.36,0,0,0-5.32-2.28,7,7,0,0,0-4.55,1.54,5.28,5.28,0,0,0-2.1,4.38,5.51,5.51,0,0,0,.88,3A5.69,5.69,0,0,0,81,54.68a7.83,7.83,0,0,0,3.5.77,7.54,7.54,0,0,0,3.39-.77,5.72,5.72,0,0,0,2.42-2.2l.35-.6h-2a4.63,4.63,0,0,1-1.79,1.47,5.35,5.35,0,0,1-2.41.56,5,5,0,0,1-2.9-.84,4.59,4.59,0,0,1-1.75-2.31,9.62,9.62,0,0,1,3.57-.7l1.88.21,2.94.28a8.11,8.11,0,0,0,2.38-.35.81.81,0,0,0,.53-.42.84.84,0,0,0,0-.66A6.55,6.55,0,0,0,89.67,45.87Zm-.49,2.87,0,.07-1,.14L86,48.74l-3.07-.25h-.53a10.33,10.33,0,0,0-2.76.56,4.12,4.12,0,0,1,1.82-3,5.32,5.32,0,0,1,2.9-.88,4.9,4.9,0,0,1,3.85,1.58A4.73,4.73,0,0,1,89.18,48.74Z"/><path class="cls-4" d="M69.55,43.59A6.67,6.67,0,0,0,65,45.24a6.46,6.46,0,0,0-2,5.1l0,8.79h1.89l0-5.67a5.83,5.83,0,0,0,2.07,1.47,6.78,6.78,0,0,0,2.76.56,6.67,6.67,0,0,0,4.72-1.75,5.35,5.35,0,0,0,2-4.2,5.42,5.42,0,0,0-1.92-4.23A7.2,7.2,0,0,0,69.55,43.59Zm-3.57,3a4.92,4.92,0,0,1,3.57-1.4,5.07,5.07,0,0,1,3.5,1.26,4,4,0,0,1,1.4,3.15,4.15,4.15,0,0,1-1.23,3,5,5,0,0,1-3.63,1.33A5.14,5.14,0,0,1,66,52.58a4.16,4.16,0,0,1-1.26-3A4.12,4.12,0,0,1,66,46.57Z"/><path class="cls-5" d="M49.72,35.84a4.25,4.25,0,0,1-.46-.4,17.8,17.8,0,0,0-24.5,25.19,36.4,36.4,0,0,0,15.6-9.24A36.25,36.25,0,0,0,49.72,35.84Z"/><path class="cls-3" d="M39,67.8A17.8,17.8,0,0,0,54.1,40.54L54,40.39a12.56,12.56,0,0,1-.83,9.4,12.91,12.91,0,0,1-3.73,4.32,17.45,17.45,0,0,1-4.5,2.33A44.7,44.7,0,0,1,39.44,58L33,59.46c-2.76.63-5.28,1.31-7.52,2A17.71,17.71,0,0,0,39,67.8Z"/></svg>