<svg id="Layer_1" data-name="Layer 1" xmlns="http://www.w3.org/2000/svg" viewBox="0 0 140 100"><defs><style>.cls-1{fill:#de003d;}.cls-2{fill:#373737;}.cls-3{fill:none;}</style></defs><title>partner-zowie</title><path class="cls-1" d="M46.23,60.81H26.45a6.35,6.35,0,1,1,0-12.7h11a2.38,2.38,0,1,0,0-4.76h-11a11.11,11.11,0,0,0,0,22.22H46.23a2.38,2.38,0,1,0,0-4.76h0"/><path class="cls-1" d="M37.5,34.62H17.72a2.38,2.38,0,1,0,0,4.76H37.5a6.35,6.35,0,1,1,0,12.7h-11a2.38,2.38,0,1,0,0,4.76h11a11.11,11.11,0,0,0,0-22.22"/><path class="cls-2" d="M99.77,34.43V44.55A2.44,2.44,0,0,1,97.34,47h-2V34.43H93.16V47h-2a2.44,2.44,0,0,1-2.44-2.44h0V34.43H86.55V44.55a4.58,4.58,0,0,0,4.58,4.57h6.72c2.52,0,4.06-2,4.06-4.57V34.43Z"/><path class="cls-2" d="M76.75,49.17a7.37,7.37,0,1,1,7.37-7.37A7.37,7.37,0,0,1,76.75,49.17Zm0-12.58A5.22,5.22,0,1,0,82,41.8a5.22,5.22,0,0,0-5.25-5.21Z"/><rect class="cls-2" x="105.95" y="34.43" width="2.14" height="14.72"/><path class="cls-2" d="M57.41,46.14a.91.91,0,0,1,.48-.81l8.39-5.27h0a3.05,3.05,0,0,0-1.66-5.61H55.28v2.14h9.38a.91.91,0,0,1,.51,1.67l-8.32,5.23a3.21,3.21,0,0,0-1.58,2.67,3,3,0,0,0,3,3h9.31V47.05H58.32A.91.91,0,0,1,57.41,46.14Z"/><path class="cls-2" d="M115.81,36.61h8.85V34.43h-8.85a3.68,3.68,0,0,0-3.67,3.66v7.38a3.67,3.67,0,0,0,3.66,3.66h8.86V47H115.8a1.48,1.48,0,0,1-1.48-1.48h0v-2.6h10.34V40.7H114.32V38.09A1.5,1.5,0,0,1,115.81,36.61Z"/><path class="cls-2" d="M87.26,55.45l-.6-.11a.89.89,0,0,1,.35-.52,1.14,1.14,0,0,1,.72-.18,1.62,1.62,0,0,1,.65.11.63.63,0,0,1,.3.26,1.27,1.27,0,0,1,.09.58v.77a3.69,3.69,0,0,0,0,.47.93.93,0,0,0,.12.33h-.65l0-.16v-.07a1.26,1.26,0,0,1-.36.24,1.15,1.15,0,0,1-.41.08.82.82,0,0,1-.6-.21.71.71,0,0,1-.22-.52.79.79,0,0,1,.1-.37A.75.75,0,0,1,87,55.9a2.38,2.38,0,0,1,.52-.15,3.53,3.53,0,0,0,.64-.16v-.07a.34.34,0,0,0-.1-.27.57.57,0,0,0-.34-.08.39.39,0,0,0-.43.31Zm.87.53-.4.1a1.12,1.12,0,0,0-.35.12.26.26,0,0,0-.13.23.29.29,0,0,0,.1.23.35.35,0,0,0,.26.1.54.54,0,0,0,.34-.12.39.39,0,0,0,.15-.21.86.86,0,0,0,0-.32Z"/><path class="cls-2" d="M90.7,57.16v-3.4h.66V55a.9.9,0,0,1,.71-.35,1,1,0,0,1,.75.33,1.39,1.39,0,0,1,.29.94,1.43,1.43,0,0,1-.3,1,.94.94,0,0,1-.73.34.88.88,0,0,1-.42-.11,1,1,0,0,1-.35-.31v.36Zm.65-1.28a1.13,1.13,0,0,0,.12.57.54.54,0,0,0,.45.26.45.45,0,0,0,.37-.19.92.92,0,0,0,.15-.58,1,1,0,0,0-.15-.61.5.5,0,0,0-.78,0A.78.78,0,0,0,91.35,55.88Z"/><path class="cls-2" d="M94.26,57.16h-.65V54.7h.61v.35a1.09,1.09,0,0,1,.27-.33.6.6,0,0,1,.29-.08.75.75,0,0,1,.43.13l-.21.56a.54.54,0,0,0-.3-.1.39.39,0,0,0-.23.07.48.48,0,0,0-.15.28,3.78,3.78,0,0,0-.06.82Z"/><path class="cls-2" d="M96,55.45l-.6-.11a.89.89,0,0,1,.35-.52,1.14,1.14,0,0,1,.72-.18,1.62,1.62,0,0,1,.65.11.63.63,0,0,1,.3.26,1.27,1.27,0,0,1,.09.58v.77a3.69,3.69,0,0,0,0,.47.93.93,0,0,0,.12.33H97a1.46,1.46,0,0,1-.07-.19V56.9a1.26,1.26,0,0,1-.36.24,1.1,1.1,0,0,1-.4.08.86.86,0,0,1-.61-.21.68.68,0,0,1-.21-.52.78.78,0,0,1,.09-.37.71.71,0,0,1,.29-.25,2.15,2.15,0,0,1,.51-.15,3.53,3.53,0,0,0,.64-.16v-.07a.37.37,0,0,0-.09-.27.62.62,0,0,0-.35-.08.39.39,0,0,0-.43.31Zm.87.53-.4.1a1.12,1.12,0,0,0-.35.12.26.26,0,0,0-.13.23.29.29,0,0,0,.1.23.32.32,0,0,0,.26.1.54.54,0,0,0,.34-.12.36.36,0,0,0,.15-.21.86.86,0,0,0,0-.32Z"/><path class="cls-2" d="M100.37,57.16h-.65V55.91a2.26,2.26,0,0,0,0-.52.28.28,0,0,0-.14-.18.34.34,0,0,0-.22-.07.5.5,0,0,0-.31.1.43.43,0,0,0-.18.24,2.71,2.71,0,0,0,0,.57v1.11h-.65V54.7h.6v.36a1,1,0,0,1,1.21-.34.6.6,0,0,1,.27.2.84.84,0,0,1,.13.27,3.23,3.23,0,0,1,0,.44Z"/><path class="cls-2" d="M103.3,57.16h-.61V56.8a1.07,1.07,0,0,1-.35.32.87.87,0,0,1-.42.1,1,1,0,0,1-.73-.34,1.43,1.43,0,0,1-.3-1,1.34,1.34,0,0,1,.3-1,.92.92,0,0,1,.74-.33.9.9,0,0,1,.71.35V53.76h.66Zm-1.74-1.28a1,1,0,0,0,.11.57.51.51,0,0,0,.44.26.48.48,0,0,0,.38-.2.83.83,0,0,0,.16-.57.94.94,0,0,0-.16-.61.49.49,0,0,0-.39-.19.51.51,0,0,0-.39.19A.82.82,0,0,0,101.56,55.88Z"/><path class="cls-2" d="M105.23,57.16v-3.4h.66V55a.9.9,0,0,1,.71-.35,1,1,0,0,1,.75.33,1.39,1.39,0,0,1,.29.94,1.43,1.43,0,0,1-.3,1,.94.94,0,0,1-.73.34.88.88,0,0,1-.42-.11,1,1,0,0,1-.35-.31v.36Zm.65-1.28a1.13,1.13,0,0,0,.12.57.51.51,0,0,0,.45.26.45.45,0,0,0,.37-.19.92.92,0,0,0,.15-.58,1,1,0,0,0-.15-.61.5.5,0,0,0-.78,0A.78.78,0,0,0,105.88,55.88Z"/><path class="cls-2" d="M107.86,54.7h.69l.59,1.75.58-1.75h.67l-.87,2.37-.15.43a1.29,1.29,0,0,1-.17.33.55.55,0,0,1-.2.17,1.28,1.28,0,0,1-.24.11h-.71V57.6h.27a.41.41,0,0,0,.34-.14.91.91,0,0,0,.17-.34Z"/><path class="cls-2" d="M112.14,53.76h1.36a3,3,0,0,1,.6,0,.8.8,0,0,1,.36.14.87.87,0,0,1,.26.28.79.79,0,0,1,.1.4.76.76,0,0,1-.13.44.79.79,0,0,1-.35.3.9.9,0,0,1,.48.3.87.87,0,0,1,.17.52,1,1,0,0,1-.4.8,1,1,0,0,1-.46.16h-2Zm.69.57v.78h1a.4.4,0,0,0,.27-.12.36.36,0,0,0,.11-.26.36.36,0,0,0-.34-.38h-1Zm0,1.35v.91h1.11a.43.43,0,0,0,.34-.42.48.48,0,0,0-.07-.26.4.4,0,0,0-.22-.16,2.08,2.08,0,0,0-.61,0Z"/><path class="cls-2" d="M117,56.38l.65.11a1,1,0,0,1-.39.54,1.17,1.17,0,0,1-.68.19,1.1,1.1,0,0,1-1-.42,1.44,1.44,0,0,1-.25-.85,1.35,1.35,0,0,1,.33-1,1.15,1.15,0,0,1,1.67,0,1.57,1.57,0,0,1,.31,1.11H116a.75.75,0,0,0,.16.45.47.47,0,0,0,.38.16.35.35,0,0,0,.26-.08A.45.45,0,0,0,117,56.38Zm0-.66a.57.57,0,0,0-.15-.43.41.41,0,0,0-.33-.15.42.42,0,0,0-.36.16.54.54,0,0,0-.13.42Z"/><path class="cls-2" d="M120.45,57.16h-.65V55.91a2.26,2.26,0,0,0,0-.52.28.28,0,0,0-.14-.18.34.34,0,0,0-.22-.07.5.5,0,0,0-.31.1.43.43,0,0,0-.18.24,1.82,1.82,0,0,0,0,.57v1.11h-.66V54.7h.61v.36a1,1,0,0,1,1.21-.34.6.6,0,0,1,.27.2.84.84,0,0,1,.13.27,3.23,3.23,0,0,1,0,.44Z"/><path class="cls-2" d="M123.86,56.73a2.22,2.22,0,0,0,.55.29l-.25.49a1.69,1.69,0,0,1-.31-.13l-.46-.3a1.71,1.71,0,0,1-.74.14,1.59,1.59,0,0,1-1.22-.46,2.09,2.09,0,0,1,0-2.59,1.77,1.77,0,0,1,2.41,0,1.8,1.8,0,0,1,.44,1.29,2.06,2.06,0,0,1-.12.78A2.22,2.22,0,0,1,123.86,56.73Zm-.55-.38a1,1,0,0,0,.19-.38,1.79,1.79,0,0,0,.07-.51,1.33,1.33,0,0,0-.26-.88.94.94,0,0,0-1.33,0l0,0a1.26,1.26,0,0,0-.26.88,1.33,1.33,0,0,0,.26.9.84.84,0,0,0,.66.29.66.66,0,0,0,.28,0,1.65,1.65,0,0,0-.42-.21l.19-.39A2.56,2.56,0,0,1,123.31,56.35Z"/><rect class="cls-3" width="140" height="100"/></svg>