<svg id="Layer_1" data-name="Layer 1" xmlns="http://www.w3.org/2000/svg" viewBox="0 0 140 100"><defs><style>.cls-1{fill:none;}.cls-2{fill:#80bc00;}</style></defs><title>partner-nvidia</title><rect class="cls-1" width="140" height="100"/><path id="Reg" d="M106.78,75.75v-.3H107c.1,0,.24,0,.24.14s-.07.16-.19.16h-.24m0,.2h.13l.29.52h.32l-.32-.54a.28.28,0,0,0,.3-.32c0-.28-.19-.37-.52-.37h-.47v1.23h.27V76m1.38-.09A1.19,1.19,0,1,0,107,77a1.12,1.12,0,0,0,1.18-1.14m-.34,0a.85.85,0,0,1-.84.88h0a.83.83,0,0,1-.85-.87.85.85,0,1,1,1.69,0Z"/><path id="NVIDIA" d="M64.63,63.64v13h3.66v-13Zm-28.79,0v13h3.69V66.74h2.86a2.69,2.69,0,0,1,2.08.73c.58.61.81,1.61.81,3.43v5.7h3.58V69.43c0-5.12-3.26-5.81-6.45-5.81Zm34.68,0v13h5.94c3.16,0,4.19-.53,5.31-1.71a7.24,7.24,0,0,0,1.3-4.63,7.64,7.64,0,0,0-1.19-4.46c-1.35-1.81-3.31-2.16-6.22-2.16Zm3.63,2.82h1.57c2.29,0,3.76,1,3.76,3.68S78,73.83,75.72,73.83H74.15Zm-14.8-2.82L56.3,73.91,53.37,63.64H49.42l4.18,13h5.27l4.22-13Zm25.42,13h3.66v-13H84.77ZM95,63.64l-5.11,13h3.61l.81-2.29h6l.77,2.29h3.92l-5.15-13ZM97.41,66l2.21,6.06h-4.5Z"/><path id="Eye_Mark" data-name="Eye Mark" class="cls-2" d="M59.79,33.28V30.17l.92-.05c8.51-.26,14.1,7.32,14.1,7.32s-6,8.38-12.5,8.38a7.93,7.93,0,0,1-2.52-.4V36c3.31.4,4,1.86,6,5.18l4.44-3.73a11.74,11.74,0,0,0-8.69-4.25,15.91,15.91,0,0,0-1.72.1m0-10.28v4.65l.92,0c11.84-.4,19.55,9.71,19.55,9.71S71.4,48.08,62.17,48.08a13.78,13.78,0,0,1-2.38-.21v2.88a16,16,0,0,0,2,.12c8.59,0,14.81-4.38,20.82-9.58,1,.8,5.08,2.75,5.92,3.6-5.72,4.79-19.05,8.64-26.6,8.64a20.88,20.88,0,0,1-2.12-.11v4H92.44V23Zm0,22.42v2.45c-7.95-1.42-10.15-9.67-10.15-9.67a17.17,17.17,0,0,1,10.15-4.92V36h0c-3.33-.4-5.93,2.7-5.93,2.7s1.46,5.23,5.94,6.74M45.68,37.84a19.68,19.68,0,0,1,14.11-7.67V27.65c-10.41.84-19.43,9.66-19.43,9.66s5.1,14.76,19.43,16.11V50.75C49.28,49.42,45.68,37.84,45.68,37.84Z"/></svg>