<svg id="Layer_1" data-name="Layer 1" xmlns="http://www.w3.org/2000/svg" viewBox="0 0 140 100"><defs><style>.cls-1{fill:none;}.cls-2{fill:#4f2170;}.cls-3{fill:#4cc226;}</style></defs><title>partner-telus</title><rect class="cls-1" width="140" height="100"/><polyline class="cls-2" points="81.7 44.76 81.7 42.23 72.69 42.23 72.69 55.24 81.7 55.24 81.7 52.6 76.34 52.6 76.34 49.72 80.8 49.72 80.8 47.2 76.34 47.2 76.34 44.76 81.7 44.76"/><polyline class="cls-2" points="97.61 52.68 91.97 52.68 91.97 42.23 88.28 42.23 88.28 55.24 97.61 55.24 97.61 52.68"/><path class="cls-2" d="M127.36,47.2c-2.49-.56-3.36-.63-3.36-1.61s1.23-1.22,1.94-1.22a8.68,8.68,0,0,1,3.9,1l1-2.39a10.7,10.7,0,0,0-5-1.1c-3.44,0-5.75,1.4-5.84,4.12-.11,2.48,1.86,3.41,3.73,3.8s3.59.68,3.63,1.74-.84,1.39-2.5,1.39a11.52,11.52,0,0,1-4.43-1.1l-.86,2.6a13.2,13.2,0,0,0,5.15,1.11c2.44,0,4.22-.38,5.53-1.61a3.73,3.73,0,0,0,1.21-2.8c0-2.05-1.28-3.21-4.15-3.86"/><polyline class="cls-2" points="67.44 44.8 67.44 42.23 56.1 42.23 56.1 44.8 59.94 44.8 59.94 55.24 63.61 55.24 63.61 44.8 67.44 44.8"/><path class="cls-2" d="M110.21,42.23v8.26a6.61,6.61,0,0,1,0,1.09c-.11.78-.88,1.24-2.1,1.26a2.21,2.21,0,0,1-1.87-.76,2.59,2.59,0,0,1-.23-1.37V42.23h-3.83v9a3.43,3.43,0,0,0,.73,2.52c.93,1.16,2.72,1.77,5.21,1.77h.13c3.33,0,5-1.31,5.54-2.51a4.28,4.28,0,0,0,.27-2.06V42.23h-3.81"/><path class="cls-2" d="M57.87,38.68,36.4,43V44.4C50.6,41,57.87,38.87,57.87,38.86a.11.11,0,0,0,.09-.13h0a.1.1,0,0,0-.13-.09h0"/><path class="cls-3" d="M39.8,39.87c.33-.21.43-.08.32.16s-.87,2.72-6.29,7.15a31.37,31.37,0,0,1-4.45,3A46.63,46.63,0,0,1,39.8,39.87m.56-1.6c-1,0-3,1.6-4,2.52a50.6,50.6,0,0,0-9.65,10.54A116.33,116.33,0,0,1,9.79,58.56H9.64L8.48,61.74l.67-.26a162.86,162.86,0,0,0,16-7.26,6.86,6.86,0,0,0-.49,2.41A4.12,4.12,0,0,0,25,58.14a3.55,3.55,0,0,0,2.08,2,9,9,0,0,0,5.82-.1c5.92-1.79,12.93-7.29,14.45-8.4h0a.09.09,0,0,0,0-.14h0a.11.11,0,0,0-.15,0h0l-.08,0c-1.64.93-9.59,5.7-14.76,7.09-2.65.71-4.67.32-5.41-.73a2.31,2.31,0,0,1-.36-1.38,7.65,7.65,0,0,1,1.44-3.84c.86-.51,1.68-1,2.41-1.44,5.05-2.8,10.87-8.35,11.11-11.72v-.08a1.2,1.2,0,0,0-.35-.81A1.1,1.1,0,0,0,40.36,38.27Z"/><polyline class="cls-2" points="36.27 42.97 13.66 47.83 12.79 50.18 36.34 44.46 36.38 44.45 36.38 42.94 36.27 42.97"/></svg>